<svg width="256" height="256" viewBox="0 0 256 256" fill="none" xmlns="http://www.w3.org/2000/svg">
<path d="M196 0H60H0V60V196C0 229.137 26.8629 256 60 256H196C229.137 256 256 229.137 256 196V60C256 26.8629 229.137 0 196 0Z" fill="#663399"/>
<path d="M91.6737 235.52C75.2308 235.504 65.0855 226.245 65.2801 209.206V166.098C65.2801 157.46 67.8094 150.891 72.8679 146.396C81.9534 137.643 103.032 137.111 111.931 146.529C117.414 151.365 119.483 161.244 118.991 170.462H100.119C100.262 166.84 100.07 161.354 97.9406 159.288C95.1732 155.543 87.8644 155.983 85.9316 159.882C84.7438 161.997 84.1499 165.127 84.1499 169.27V206.692C84.1499 214.538 86.8763 218.506 92.3316 218.593C94.8814 218.593 96.8193 217.666 98.1377 215.815C99.9783 213.619 100.265 208.755 100.117 205.238H118.989C120.279 223.175 109.691 235.742 91.6711 235.52H91.6737ZM151.588 235.52C133.368 235.771 125.217 222.807 125.722 205.238H143.537C143.043 212.897 145.674 219.873 151.982 219.387C154.796 219.387 156.777 218.506 157.921 216.742C160.097 213.519 160.504 204.211 157.394 200.609C155.221 197.14 147.402 194.078 143.273 192.015C137.377 189.194 133.133 185.846 130.537 181.965C124.682 173.353 125.225 154.45 133.44 146.79C141.422 137.339 162.268 136.903 170.258 146.593C175.186 151.588 177.339 161.415 176.922 170.46H159.765C159.91 166.743 159.56 160.745 158.116 158.558C157.105 156.708 155.19 155.781 152.376 155.781C147.361 155.781 144.855 158.779 144.855 164.772C144.909 171.136 147.39 173.747 153.17 176.407C160.655 179.315 170.174 184.281 173.624 190.292C183.916 208.606 176.855 236.582 151.585 235.515L151.588 235.52ZM209.126 235.52C190.907 235.771 182.756 222.807 183.26 205.238H201.075C200.581 212.897 203.213 219.873 209.521 219.387C212.334 219.387 214.316 218.506 215.46 216.742C217.636 213.519 218.043 204.211 214.933 200.609C212.759 197.14 204.941 194.078 200.812 192.015C194.916 189.194 190.671 185.846 188.076 181.965C182.221 173.353 182.764 154.45 190.979 146.79C198.961 137.339 219.807 136.903 227.797 146.593C232.725 151.588 234.878 161.415 234.46 170.46H217.303C217.449 166.743 217.098 160.745 215.654 158.558C214.643 156.708 212.728 155.781 209.915 155.781C204.9 155.781 202.394 158.779 202.394 164.772C202.447 171.136 204.928 173.747 210.709 176.407C218.194 179.315 227.712 184.281 231.163 190.292C241.454 208.606 234.394 236.582 209.124 235.515L209.126 235.52Z" fill="white"/>
</svg>
