<svg width="256" height="256" viewBox="0 0 256 256" fill="none" xmlns="http://www.w3.org/2000/svg">
<g clip-path="url(#clip0_138_10)">
<path d="M196 0H60C26.8629 0 0 26.8629 0 60V196C0 229.137 26.8629 256 60 256H196C229.137 256 256 229.137 256 196V60C256 26.8629 229.137 0 196 0Z" fill="#242938"/>
<path d="M73.619 53.4155C95.63 69.9965 119.309 103.611 128 121.65V169.296C128 168.282 127.61 169.428 126.77 171.897C122.234 185.265 104.516 237.438 64.001 195.729C42.668 173.769 52.544 151.809 91.376 145.179C69.161 148.971 44.186 142.704 37.334 118.134C35.36 111.066 32 67.5305 32 61.6505C32 32.1965 57.737 41.4545 73.619 53.4155ZM182.381 53.4155C160.37 69.9965 136.691 103.611 128 121.65V169.296C128 168.282 128.39 169.428 129.23 171.897C133.766 185.265 151.484 237.438 191.999 195.729C213.332 173.769 203.456 151.809 164.624 145.179C186.839 148.971 211.814 142.704 218.666 118.134C220.64 111.066 224 67.5305 224 61.6505C224 32.1965 198.266 41.4545 182.381 53.4155Z" fill="#0085FF"/>
</g>
<defs>
<clipPath id="clip0_138_10">
<rect width="256" height="256" fill="white"/>
</clipPath>
</defs>
</svg>
