<svg width="256" height="256" viewBox="0 0 256 256" fill="none" xmlns="http://www.w3.org/2000/svg">
<g clip-path="url(#clip0_147_98)">
<path d="M196 0H60C26.8629 0 0 26.8629 0 60V196C0 229.137 26.8629 256 60 256H196C229.137 256 256 229.137 256 196V60C256 26.8629 229.137 0 196 0Z" fill="#242938"/>
<path d="M122.81 191.996H97.8686L130.657 72.2114C131.984 67.3643 136.417 64 141.477 64H170.745C200.175 64 224 77.9126 224 112.694C224 147.475 194.569 161.388 170.745 161.388H146.92L154.311 137.278C155.748 132.592 160.102 129.389 165.037 129.389L170.745 129.389C176.35 129.389 191.766 130.78 191.766 112.694C191.766 94.6079 174.949 94.6079 170.745 94.6079H156.73L133.669 183.637C132.394 188.557 127.927 191.996 122.81 191.996Z" fill="#F76A1E"/>
<path d="M97.3389 168.418L90.8613 191.996C76.8467 191.996 32 193.387 32 143.302C32 89.0431 95.0657 94.6078 117.489 94.6077L112.016 115.436C110.175 122.44 104.851 127.78 97.5605 127.654C83.3474 127.408 64.2336 125.472 64.2336 143.302C64.2336 159.585 78.9246 161.283 91.9317 161.402C95.628 161.436 98.3115 164.877 97.3389 168.418Z" fill="#F76A1E"/>
</g>
<defs>
<clipPath id="clip0_147_98">
<rect width="256" height="256" fill="white"/>
</clipPath>
</defs>
</svg>
