<svg width="256" height="256" viewBox="0 0 256 256" fill="none" xmlns="http://www.w3.org/2000/svg">
<g clip-path="url(#clip0_145_104)">
<path d="M196 0H60C26.8629 0 0 26.8629 0 60V196C0 229.137 26.8629 256 60 256H196C229.137 256 256 229.137 256 196V60C256 26.8629 229.137 0 196 0Z" fill="#242938"/>
<path fill-rule="evenodd" clip-rule="evenodd" d="M39.8924 176.411C34.1852 163.967 31 150.107 31 135.501C31 131.721 31.2136 127.991 31.6286 124.323C32.0499 120.616 32.6746 116.978 33.4898 113.42C38.0704 93.4616 48.7243 75.8432 63.3747 62.6646C75.68 51.6103 90.7544 43.7228 107.279 40.1477C113.801 38.7404 120.565 38 127.5 38C129.931 38.0026 132.379 38.0969 134.841 38.2867C146.521 39.1876 157.557 42.1582 167.626 46.8157C175.748 50.5767 183.266 55.4441 189.99 61.2261C206.88 75.7633 218.659 96.0136 222.576 118.738C223.512 124.184 224 129.786 224 135.501C223.998 137.961 223.904 140.438 223.716 142.931C223.004 152.349 220.987 161.354 217.859 169.778C213.492 181.512 206.948 192.173 198.727 201.257C188.033 212.289 174.445 217.198 163.095 216.994C154.842 216.845 146.768 213.527 141.188 208.673C133.217 201.738 129.997 193.81 128.893 184.964C128.619 182.765 128.78 176.773 129.913 172.624C130.757 169.531 132.898 163.558 136.03 160.946C132.367 159.352 127.652 155.881 126.166 154.215C125.801 153.805 125.849 153.164 126.175 152.723C126.503 152.282 127.076 152.108 127.59 152.294C130.739 153.386 134.574 154.463 138.618 155.147C143.937 156.045 150.551 157.177 157.252 157.509C173.59 158.32 190.655 150.911 195.952 136.169C201.248 121.427 199.193 106.846 180.192 98.0995C161.191 89.3527 152.414 78.953 137.061 72.6809C127.034 68.5837 115.873 71.0161 104.414 77.4144C73.5499 94.6479 45.8981 149.099 58.6448 199.546C58.8268 200.236 58.5193 200.963 57.8998 201.307C57.3188 201.629 56.6047 201.537 56.1235 201.092C52.4139 196.973 49.0479 192.533 46.0724 187.817C43.7705 184.168 41.7041 180.358 39.8924 176.411Z" fill="white"/>
<path fill-rule="evenodd" clip-rule="evenodd" d="M124.046 79.4494C129.252 79.0372 133.794 83.5263 134.577 89.4968C135.621 97.4499 132.732 105.666 123.232 105.855C115.117 106.019 112.658 97.7495 113.196 92.7404C113.73 87.7313 117.817 79.9434 124.046 79.4494Z" fill="white"/>
</g>
<defs>
<clipPath id="clip0_145_104">
<rect width="256" height="256" fill="white"/>
</clipPath>
</defs>
</svg>
