<svg width="256" height="256" viewBox="0 0 256 256" fill="none" xmlns="http://www.w3.org/2000/svg">
<g clip-path="url(#clip0_145_112)">
<path d="M196 0H60C26.8629 0 0 26.8629 0 60V196C0 229.137 26.8629 256 60 256H196C229.137 256 256 229.137 256 196V60C256 26.8629 229.137 0 196 0Z" fill="#242938"/>
<mask id="mask0_145_112" style="mask-type:luminance" maskUnits="userSpaceOnUse" x="32" y="51" width="192" height="153">
<path d="M134.19 171.134C110.962 171.717 113.407 156.453 113.407 156.453C113.407 156.453 198.212 127.419 175.09 70.0683C164.696 55.3138 152.622 50.6775 135.531 51.0172C118.437 51.3492 97.3867 61.7781 83.6416 92.6363C77.0854 107.364 74.8588 121.313 73.5218 131.885C73.5218 131.885 58.5013 134.902 50.4556 128.21C42.4157 121.508 38.1845 128.21 38.1845 128.21C38.1845 128.21 24.3352 144.424 38.0861 149.796C51.8313 155.165 73.2362 156.25 73.2362 156.25H73.2266C75.1965 170.53 80.0451 184.257 97.6684 195.723C127.219 214.957 171.073 194.642 171.073 194.642C197.356 183.653 214.813 166.64 222.253 158.354C223.407 157.069 224.031 155.393 223.999 153.665C223.966 151.937 223.279 150.286 222.077 149.045L213.518 140.146C212.327 138.904 210.712 138.158 208.995 138.057C207.277 137.956 205.585 138.507 204.257 139.6C192.825 148.967 162.775 171.134 134.19 171.134ZM109.382 130.553C110.391 90.6463 136.535 73.2068 145.589 81.9372C154.644 90.6463 151.285 109.423 134.19 121.161C117.1 132.904 109.382 130.553 109.382 130.553Z" fill="white"/>
</mask>
<g mask="url(#mask0_145_112)">
<rect x="9.12158" y="5.88916" width="246.965" height="247.066" fill="#E04E39"/>
</g>
</g>
<defs>
<clipPath id="clip0_145_112">
<rect width="256" height="256" fill="white"/>
</clipPath>
</defs>
</svg>
