<svg width="256" height="256" viewBox="0 0 256 256" fill="none" xmlns="http://www.w3.org/2000/svg">
<g clip-path="url(#clip0_145_116)">
<path d="M196 0H60C26.8629 0 0 26.8629 0 60V196C0 229.137 26.8629 256 60 256H196C229.137 256 256 229.137 256 196V60C256 26.8629 229.137 0 196 0Z" fill="#242938"/>
<path d="M72.5565 112.475C72.5565 118.934 67.3054 124.17 60.8279 124.17C54.3503 124.17 49.0993 118.934 49.0993 112.475C49.0993 106.017 54.3503 100.781 60.8279 100.781C63.033 100.781 65.096 101.388 66.858 102.443C69.4318 103.984 71.3635 106.482 72.1585 109.444C72.4181 110.411 72.5565 111.427 72.5565 112.475Z" fill="#EC3A00"/>
<path fill-rule="evenodd" clip-rule="evenodd" d="M126.801 35C142.995 35 156.123 48.0894 156.123 64.236H147.326C147.326 52.9334 138.137 43.7708 126.801 43.7708C115.466 43.7708 106.276 52.9334 106.276 64.236C106.276 70.4115 109.02 75.9482 113.357 79.7005L106.14 84.9806C100.791 79.6844 97.4797 72.3458 97.4797 64.236C97.4797 48.0894 110.607 35 126.801 35Z" fill="#EC3A00"/>
<path d="M66.6922 102.564L66.858 102.443L101.145 77.3922L106.14 84.9806L72.1585 109.444L71.8866 109.642L66.6922 102.564Z" fill="#EC3A00"/>
<path d="M158.465 183.712C162.361 178.552 169.714 177.519 174.889 181.404C180.064 185.288 181.1 192.621 177.204 197.78C173.308 202.94 165.954 203.973 160.78 200.088C159.018 198.766 157.736 197.044 156.965 195.144C155.839 192.369 155.802 189.215 156.954 186.372C157.33 185.444 157.832 184.549 158.465 183.712Z" fill="#912EEA"/>
<path fill-rule="evenodd" clip-rule="evenodd" d="M68.3924 213.072C55.4556 203.36 52.8645 185.03 62.605 172.131L69.6323 177.406C62.8139 186.436 64.6276 199.267 73.6834 206.065C82.7392 212.864 95.6077 211.055 102.426 202.026C106.152 197.092 107.3 191.024 106.098 185.425L115.049 185.535C116.127 192.974 114.346 200.823 109.453 207.301C99.7128 220.2 81.3292 222.784 68.3924 213.072Z" fill="#912EEA"/>
<path d="M157.17 195.147L156.965 195.144L114.462 194.593L115.049 185.535L156.954 186.372L157.291 186.377L157.17 195.147Z" fill="#912EEA"/>
<path d="M131.971 76.6627C125.807 78.6458 119.197 75.2707 117.208 69.124C115.219 62.9774 118.604 56.3869 124.769 54.4038C130.933 52.4206 137.543 55.7958 139.532 61.9424C140.209 64.0349 140.263 66.1788 139.797 68.1749C139.116 71.0904 137.325 73.6905 134.743 75.3542C133.899 75.8974 132.972 76.3408 131.971 76.6627Z" fill="#027CFF"/>
<path fill-rule="evenodd" clip-rule="evenodd" d="M222.576 104.347C227.548 119.714 219.085 136.19 203.674 141.148L200.973 132.801C211.761 129.33 217.685 117.797 214.204 107.04C210.723 96.2838 199.156 90.3773 188.368 93.8478C182.474 95.744 178.032 100.047 175.782 105.316L168.526 100.088C171.939 93.3867 177.927 87.9908 185.667 85.5007C201.079 80.5428 217.603 88.9807 222.576 104.347Z" fill="#027CFF"/>
<path d="M139.631 68.0546L139.797 68.1749L174.235 93.0183L168.526 100.088L134.743 75.3542L134.47 75.1571L139.631 68.0546Z" fill="#027CFF"/>
<path d="M90.665 178.388C96.828 180.376 100.208 186.969 98.2142 193.114C96.2205 199.259 89.6081 202.629 83.445 200.641C77.282 198.653 73.9021 192.06 75.8958 185.915C76.5745 183.823 77.7885 182.053 79.3378 180.706C81.6007 178.738 84.5791 177.675 87.6497 177.832C88.6522 177.883 89.6645 178.065 90.665 178.388Z" fill="#00BDD5"/>
<path fill-rule="evenodd" clip-rule="evenodd" d="M33.4314 103.08C38.4157 87.7176 54.9467 79.2925 70.3543 84.2623L67.6469 92.6073C56.8615 89.1285 45.2898 95.0261 41.8008 105.78C38.3117 116.534 44.2266 128.072 55.0119 131.551C60.9049 133.451 67.0325 132.553 71.9483 129.593L74.7653 138.065C68.0652 141.509 60.0431 142.392 52.3044 139.896C36.8968 134.926 28.447 118.443 33.4314 103.08Z" fill="#00BDD5"/>
<path d="M79.4022 180.9L79.3378 180.706L65.9867 140.468L74.7653 138.065L87.6497 177.832L87.7553 178.151L79.4022 180.9Z" fill="#00BDD5"/>
<path d="M184.668 120.195C180.944 114.911 182.221 107.617 187.521 103.904C192.821 100.19 200.136 101.464 203.86 106.748C207.585 112.032 206.308 119.326 201.008 123.04C199.204 124.304 197.166 124.99 195.116 125.137C192.121 125.351 189.1 124.415 186.742 122.448C185.972 121.805 185.273 121.053 184.668 120.195Z" fill="#86C24F"/>
<path fill-rule="evenodd" clip-rule="evenodd" d="M184.961 214.682C171.711 223.966 153.423 220.782 144.112 207.571L151.309 202.528C157.827 211.776 170.629 214.004 179.903 207.506C189.178 201.007 191.413 188.243 184.896 178.995C181.335 173.942 175.897 170.985 170.185 170.402L173.045 161.944C180.475 163.211 187.416 167.317 192.093 173.952C201.404 187.163 198.21 205.398 184.961 214.682Z" fill="#86C24F"/>
<path d="M195.182 124.943L195.116 125.137L181.508 165.289L173.045 161.944L186.742 122.448L186.85 122.129L195.182 124.943Z" fill="#86C24F"/>
</g>
<defs>
<clipPath id="clip0_145_116">
<rect width="256" height="256" fill="white"/>
</clipPath>
</defs>
</svg>
