<svg width="256" height="256" viewBox="0 0 256 256" fill="none" xmlns="http://www.w3.org/2000/svg">
<g clip-path="url(#clip0_134_25)">
<path d="M196 0H60C26.8629 0 0 26.8629 0 60V196C0 229.137 26.8629 256 60 256H196C229.137 256 256 229.137 256 196V60C256 26.8629 229.137 0 196 0Z" fill="#242938"/>
<path d="M80.9209 176H62.329C60.2344 176 58.7845 178.092 59.52 180.053L75.27 222.053C75.7091 223.224 76.8285 224 78.079 224H96.6709C98.7655 224 100.215 221.908 99.4799 219.947L83.7299 177.947C83.2908 176.776 82.1715 176 80.9209 176Z" fill="#0072FF"/>
<path d="M98.4107 128H79.8079C77.7191 128 76.2697 130.081 76.9941 132.041L110.275 222.04C110.711 223.218 111.834 224 113.089 224H131.692C133.781 224 135.23 221.919 134.506 219.959L101.225 129.959C100.789 128.782 99.6663 128 98.4107 128Z" fill="#0072FF"/>
<path d="M101.416 32H82.8187C80.727 32 79.2773 34.0868 80.0073 36.047L149.273 222.047C149.71 223.221 150.831 224 152.084 224H170.681C172.773 224 174.223 221.913 173.493 219.953L104.227 33.9531C103.79 32.7788 102.669 32 101.416 32Z" fill="#0072FF"/>
<path d="M177.921 32H159.329C157.234 32 155.785 34.0921 156.52 36.0534L172.27 78.0534C172.709 79.2243 173.828 80 175.079 80H193.671C195.766 80 197.215 77.9079 196.48 75.9466L180.73 33.9466C180.291 32.7757 179.171 32 177.921 32Z" fill="#0072FF"/>
<path d="M139.911 32H121.308C119.219 32 117.77 34.0814 118.494 36.0405L151.775 126.041C152.211 127.218 153.334 128 154.589 128H173.192C175.281 128 176.73 125.919 176.006 123.959L142.725 33.9595C142.289 32.7819 141.166 32 139.911 32Z" fill="#0072FF"/>
</g>
<defs>
<clipPath id="clip0_134_25">
<rect width="256" height="256" fill="white"/>
</clipPath>
</defs>
</svg>
