<svg width="256" height="256" viewBox="0 0 256 256" fill="none" xmlns="http://www.w3.org/2000/svg">
<g clip-path="url(#clip0_134_13)">
<path d="M196 0H60C26.8629 0 0 26.8629 0 60V196C0 229.137 26.8629 256 60 256H196C229.137 256 256 229.137 256 196V60C256 26.8629 229.137 0 196 0Z" fill="#242938"/>
<path fill-rule="evenodd" clip-rule="evenodd" d="M84.4999 78C113.777 54.7575 157.6 53.5 180 71.5C208 93.9999 208.774 123.156 195.5 152.5C186 173.5 149.5 197.371 126.5 200C94.2784 203.682 65.779 189.716 53.9999 159.5C45.8134 138.5 48.5 106.58 84.4999 78ZM93 88.5002C116.624 69.7657 152.425 67.9912 170.5 82.5001C193.093 100.636 193.211 121.848 182.5 145.5C174.835 162.427 140.621 184.388 126.5 186C100.501 188.968 78.0047 180.356 68.5001 156C61.8945 139.073 63.9517 111.537 93 88.5002Z" fill="#666666"/>
<circle cx="60" cy="118" r="21" fill="black"/>
<circle cx="60" cy="118" r="15" fill="#9999FF"/>
<circle cx="88" cy="189" r="21" fill="black"/>
<circle cx="88" cy="189" r="15" fill="#9999FF"/>
<circle cx="168" cy="177" r="21" fill="black"/>
<circle cx="168" cy="177" r="15" fill="#9999FF"/>
<circle cx="196" cy="105" r="21" fill="black"/>
<circle cx="196" cy="105" r="15" fill="#9999FF"/>
<circle cx="124" cy="67" r="21" fill="black"/>
<circle cx="124" cy="67" r="15" fill="#9999FF"/>
</g>
<defs>
<clipPath id="clip0_134_13">
<rect width="256" height="256" fill="white"/>
</clipPath>
</defs>
</svg>
