<svg width="256" height="256" viewBox="0 0 256 256" fill="none" xmlns="http://www.w3.org/2000/svg">
<g clip-path="url(#clip0_138_8)">
<path d="M196 0H60C26.8629 0 0 26.8629 0 60V196C0 229.137 26.8629 256 60 256H196C229.137 256 256 229.137 256 196V60C256 26.8629 229.137 0 196 0Z" fill="#242938"/>
<g clip-path="url(#clip1_138_8)">
<path fill-rule="evenodd" clip-rule="evenodd" d="M44.375 107.273H55.3093V122.08H68.5192V107.273H79.4535V148.865H68.5192V133.005H55.3093V148.865H44.375V107.273ZM91.9974 148.865V107.273H117.862V116.313H102.932V123.078H116.142V132.284H102.932V139.936H117.862V148.865H91.9974ZM129.851 148.865V107.273H140.785V137.885H155.771V148.865H129.851ZM172.7 107.273L189.684 122.69L206.613 107.273H211.553V148.865H200.563V127.514L189.684 137.441L178.75 127.57V148.865H167.76V107.273H172.7Z" fill="#4E55BE"/>
<mask id="mask0_138_8" style="mask-type:luminance" maskUnits="userSpaceOnUse" x="44" y="165" width="174" height="90">
<path fill-rule="evenodd" clip-rule="evenodd" d="M44.5293 254.293H217.671V165.935H44.5293V254.293Z" fill="white"/>
</mask>
<g mask="url(#mask0_138_8)">
<path fill-rule="evenodd" clip-rule="evenodd" d="M168.126 175.048C171.266 172.849 178.505 177.772 184.296 186.043C190.086 194.313 192.235 202.801 189.095 205C185.955 207.199 178.715 202.277 172.925 194.006C167.134 185.735 164.986 177.247 168.126 175.048Z" fill="#4E55BE"/>
<path fill-rule="evenodd" clip-rule="evenodd" d="M93.3143 175.048C90.1743 172.849 82.9346 177.772 77.1441 186.043C71.3535 194.313 69.2048 202.801 72.3448 205C75.4848 207.199 82.7244 202.277 88.515 194.006C94.3056 185.735 96.4543 177.247 93.3143 175.048Z" fill="#4E55BE"/>
<path fill-rule="evenodd" clip-rule="evenodd" d="M130.682 187.998C126.849 187.998 123.741 196.184 123.741 206.28C123.741 216.377 126.849 224.562 130.682 224.562C134.515 224.562 137.623 216.377 137.623 206.28C137.623 196.184 134.515 187.998 130.682 187.998Z" fill="#4E55BE"/>
</g>
<mask id="mask1_138_8" style="mask-type:luminance" maskUnits="userSpaceOnUse" x="44" y="165" width="174" height="90">
<path fill-rule="evenodd" clip-rule="evenodd" d="M44.5293 254.293H217.671V165.935H44.5293V254.293Z" fill="white"/>
</mask>
<g mask="url(#mask1_138_8)">
<path d="M183.498 158.62C172.318 177.197 152.059 189.609 128.922 189.609C106.419 189.609 86.6373 177.867 75.2847 160.131M76.4994 88.7382C88.0164 72.0283 107.201 61.0881 128.922 61.0881C150.683 61.0881 169.898 72.0681 181.408 88.8293" stroke="#4E55BE" stroke-width="20"/>
</g>
<mask id="mask2_138_8" style="mask-type:luminance" maskUnits="userSpaceOnUse" x="44" y="2" width="174" height="90">
<path fill-rule="evenodd" clip-rule="evenodd" d="M44.5293 2.81201H217.671V91.1704H44.5293V2.81201Z" fill="white"/>
</mask>
<g mask="url(#mask2_138_8)">
<path fill-rule="evenodd" clip-rule="evenodd" d="M168.126 80.6977C171.266 82.8967 178.505 77.9744 184.296 69.7035C190.086 61.4326 192.235 52.9451 189.095 50.7462C185.955 48.5472 178.715 53.4695 172.925 61.7404C167.134 70.0113 164.986 78.4988 168.126 80.6977Z" fill="#4E55BE"/>
<path fill-rule="evenodd" clip-rule="evenodd" d="M93.3143 80.6977C90.1743 82.8967 82.9346 77.9744 77.1441 69.7035C71.3535 61.4326 69.2048 52.9451 72.3448 50.7462C75.4848 48.5472 82.7244 53.4695 88.515 61.7404C94.3056 70.0113 96.4543 78.4988 93.3143 80.6977Z" fill="#4E55BE"/>
<path fill-rule="evenodd" clip-rule="evenodd" d="M130.682 67.7477C126.849 67.7477 123.741 59.5625 123.741 49.4656C123.741 39.3687 126.849 31.1836 130.682 31.1836C134.515 31.1836 137.623 39.3687 137.623 49.4656C137.623 59.5625 134.515 67.7477 130.682 67.7477Z" fill="#4E55BE"/>
</g>
<mask id="mask3_138_8" style="mask-type:luminance" maskUnits="userSpaceOnUse" x="44" y="2" width="174" height="90">
<path fill-rule="evenodd" clip-rule="evenodd" d="M44.5293 2.81201H217.671V91.1704H44.5293V2.81201Z" fill="white"/>
</mask>
<g mask="url(#mask3_138_8)">
<path d="M183.498 97.1263C172.318 78.5499 152.059 66.1372 128.922 66.1372C106.419 66.1372 86.6373 77.88 75.2847 95.6156M76.4994 167.008C88.0164 183.718 107.201 194.658 128.922 194.658C150.683 194.658 169.898 183.678 181.408 166.917" stroke="#4E55BE" stroke-width="20"/>
</g>
</g>
</g>
<defs>
<clipPath id="clip0_138_8">
<rect width="256" height="256" fill="white"/>
</clipPath>
<clipPath id="clip1_138_8">
<rect width="168" height="194" fill="white" transform="translate(44 31)"/>
</clipPath>
</defs>
</svg>
