<svg width="256" height="256" viewBox="0 0 256 256" fill="none" xmlns="http://www.w3.org/2000/svg">
<g clip-path="url(#clip0_134_9)">
<path d="M196 0H60C26.8629 0 0 26.8629 0 60V196C0 229.137 26.8629 256 60 256H196C229.137 256 256 229.137 256 196V60C256 26.8629 229.137 0 196 0Z" fill="#242938"/>
<g clip-path="url(#clip1_134_9)">
<path d="M77.7345 109.555L77.7922 109.543V109.105H66.0004L55.0512 134.271L44.102 109.105H31.3952V109.543L31.4521 109.555C33.6043 110.03 34.6974 110.739 34.6974 113.294V143.207C34.6974 145.762 33.6003 146.47 31.4478 146.945L31.3909 146.958V147.396H40.0123V146.959L39.9551 146.947C37.8028 146.472 36.71 145.763 36.71 143.208V115.029L50.7754 147.396H51.5732L66.0482 114.126V143.947C65.8638 145.965 64.7809 146.588 62.8319 147.018L62.7742 147.031V147.465H77.7922V147.031L77.7345 147.018C75.7833 146.588 74.6744 145.965 74.49 143.947L74.4801 113.294H74.49C74.49 110.739 75.5828 110.03 77.7345 109.555ZM84.5942 129.371C84.8398 123.996 86.8135 120.117 90.1254 120.05C91.1471 120.067 92.0039 120.394 92.6699 121.025C94.085 122.368 94.7504 125.176 94.6476 129.371H84.5942ZM84.4457 130.885H102.047V130.813C101.997 126.703 100.78 123.507 98.4327 121.312C96.4037 119.415 93.3994 118.371 90.2438 118.371H90.1732C88.5355 118.371 86.5269 118.759 85.0975 119.463C83.4705 120.2 82.0355 121.301 80.8416 122.747C78.9193 125.076 77.7549 128.224 77.4717 131.762C77.4628 131.868 77.4545 131.974 77.447 132.08C77.44 132.181 77.4342 132.282 77.4296 132.382C77.4043 132.88 77.3959 133.378 77.4043 133.876C77.5949 141.888 82.0208 148.291 89.8817 148.291C96.7816 148.291 100.8 143.359 101.802 136.738L101.296 136.564C99.5354 140.122 96.3742 142.279 92.7761 142.016C87.8647 141.656 84.1022 136.786 84.4436 130.887M121.949 141.744C121.372 143.083 120.167 143.819 118.553 143.819C116.938 143.819 115.462 142.736 114.414 140.767C113.287 138.653 112.695 135.665 112.695 132.125C112.695 124.757 115.038 119.992 118.664 119.992C120.183 119.992 121.379 120.729 121.949 122.015V141.744ZM133.625 146.996C131.473 146.498 130.38 145.756 130.38 143.071V107.344L117.304 111.111V111.572L117.384 111.566C119.188 111.424 120.411 111.667 121.122 112.309C121.678 112.812 121.949 113.583 121.949 114.668V119.566C120.66 118.761 119.126 118.369 117.265 118.369C113.492 118.369 110.042 119.923 107.555 122.746C104.962 125.687 103.591 129.707 103.591 134.369C103.59 142.695 107.782 148.291 114.02 148.291C117.669 148.291 120.605 146.336 121.949 143.038V147.465H133.682V147.007L133.625 146.996ZM144.841 112.202C144.841 109.603 142.836 107.642 140.177 107.642C137.53 107.642 135.459 109.645 135.459 112.202C135.459 114.76 137.532 116.763 140.177 116.763C142.836 116.763 144.841 114.802 144.841 112.202ZM147.927 146.996C145.775 146.498 144.682 145.756 144.682 143.071H144.673V118.454L132.939 121.749V122.196L133.009 122.203C135.548 122.424 136.243 123.279 136.243 126.18V147.465H147.987V147.007L147.927 146.996ZM177.995 146.996C175.842 146.498 174.75 145.756 174.75 143.071V118.454L163.577 121.64V122.089L163.643 122.096C165.719 122.309 166.319 123.213 166.319 126.128V141.688C165.627 143.028 164.328 143.823 162.756 143.877C160.205 143.877 158.8 142.192 158.8 139.133V118.455L147.066 121.749V122.196L147.136 122.203C149.675 122.423 150.371 123.278 150.371 126.18V139.35C150.365 140.269 150.447 141.187 150.615 142.091L150.826 142.99C151.82 146.471 154.423 148.291 158.501 148.291C161.955 148.291 164.983 146.2 166.316 142.929V147.473H178.05V147.014L177.995 146.996ZM223.579 147.465V147.006L223.521 146.993C221.186 146.466 220.276 145.473 220.276 143.452V126.707C220.276 121.486 217.278 118.37 212.255 118.37C208.594 118.37 205.506 120.439 204.318 123.662C203.374 120.246 200.657 118.37 196.639 118.37C193.11 118.37 190.345 120.191 189.158 123.267V118.456L177.424 121.616V122.066L177.495 122.072C180.003 122.29 180.729 123.17 180.729 125.997V147.465H191.677V147.007L191.619 146.993C189.756 146.565 189.155 145.784 189.155 143.78V124.587C189.648 123.461 190.641 122.127 192.605 122.127C195.044 122.127 196.28 123.78 196.28 127.035V147.465H207.231V147.007L207.174 146.993C205.311 146.565 204.709 145.784 204.709 143.78V126.705C204.714 126.066 204.662 125.429 204.554 124.799C205.077 123.575 206.127 122.128 208.171 122.128C210.645 122.128 211.846 123.732 211.846 127.035V147.465H223.579Z" fill="#F7F4ED"/>
</g>
</g>
<defs>
<clipPath id="clip0_134_9">
<rect width="256" height="256" fill="white"/>
</clipPath>
<clipPath id="clip1_134_9">
<rect width="193" height="42" fill="white" transform="translate(31 107)"/>
</clipPath>
</defs>
</svg>
