<svg width="256" height="256" viewBox="0 0 256 256" fill="none" xmlns="http://www.w3.org/2000/svg">
<g clip-path="url(#clip0_134_43)">
<path d="M196 0H60C26.8629 0 0 26.8629 0 60V196C0 229.137 26.8629 256 60 256H196C229.137 256 256 229.137 256 196V60C256 26.8629 229.137 0 196 0Z" fill="#242938"/>
<path d="M44 110V212H50V206H98V200H104V194H110V182H116V176H122V134H110V176H104V182H98V188H62V140V128H86V122V116H92V110H44Z" fill="#FF0000"/>
<path d="M50 212H44V218H98V212H104V200H98V206H50V212Z" fill="#800000"/>
<path d="M68 146H80V140H62V188H98V182H92H86H68V146Z" fill="black"/>
<path d="M80 134H86V128H62V140H80V134Z" fill="#800000"/>
<path d="M44 218V224H98V218H44Z" fill="black"/>
<path d="M116 194H122V188V182H116V194Z" fill="black"/>
<path d="M104 212H110V206V200H116V194H110H104V200V212Z" fill="black"/>
<path d="M98 218H104V212H98V218Z" fill="black"/>
<path d="M128 182V146V140V134V128H122H116H110V134H122V176V182H128Z" fill="black"/>
<path d="M104 134V140V146V152V158V164V170V176H110V134H104Z" fill="black"/>
<path d="M98 176V182H104V176H98Z" fill="black"/>
<path d="M116 176V182H122V176H116Z" fill="#800000"/>
<path d="M110 182V194H116V182H110Z" fill="#800000"/>
<path d="M86 122H92V116H86V122Z" fill="#800000"/>
<path fill-rule="evenodd" clip-rule="evenodd" d="M38 104H44H50H56H62H68H80H86H92H98V110H92H44V212V218H38V104Z" fill="black"/>
<path d="M92 116H98V110H92V116Z" fill="#800000"/>
<path d="M44 32V104H50V38H62H68V32H44Z" fill="black"/>
<path d="M68 104V86H74V74H68V68H62V104H68Z" fill="black"/>
<path d="M74 86V98H80V86H74Z" fill="black"/>
<path d="M80 98V104H86V98H80Z" fill="black"/>
<path d="M98 104V98H92V104H98Z" fill="black"/>
<path d="M104 98V86H98V98H104Z" fill="black"/>
<path d="M110 86V104H116V68H110V74H104V86H110Z" fill="black"/>
<path d="M134 104V32H110V38H122H128V104H134Z" fill="black"/>
<path d="M110 38H104V50H110V38Z" fill="black"/>
<path d="M104 50H98V62H104V50Z" fill="black"/>
<path d="M98 62H92V74H98V62Z" fill="black"/>
<path d="M86 74V62H80V68V74H86Z" fill="black"/>
<path d="M80 62V50H74V56V62H80Z" fill="black"/>
<path d="M74 50V38H68V44V50H74Z" fill="black"/>
<path d="M92 74H86V80V86H92V74Z" fill="black"/>
<path d="M50 38V104H56V56H62V62H68V68V74H74V86H80V98H86V104H92V98H98V86H104V74H110V68V62H116V68V104H122V38H110V50H104V62H98V74H92V86V92H86V86V80H80V74V68H74V62V56H68V50V44H62V38H50Z" fill="#C0C0C0"/>
<path d="M128 104V38H122V104H128Z" fill="#808080"/>
<path d="M110 68H116V62H110V68Z" fill="#808080"/>
<path d="M92 86H86V92H92V86Z" fill="#808080"/>
<path d="M62 68H68V62H62V56H56V104H62V68Z" fill="#808080"/>
<path d="M68 38H62V44H68V38Z" fill="#808080"/>
<path d="M74 50H68V56H74V50Z" fill="#808080"/>
<path d="M80 62H74V68H80V62Z" fill="#808080"/>
<path d="M86 74H80V80H86V74Z" fill="#808080"/>
<path d="M158 86V80H140V98H146V86H158Z" fill="black"/>
<path d="M200 98H206V80H200V98Z" fill="black"/>
<path d="M194 110V104H188H152V110H194Z" fill="black"/>
<path d="M194 104H200V98H194V104Z" fill="black"/>
<path d="M146 98V104H152V98H146Z" fill="black"/>
<path d="M200 80V74H194V80H200Z" fill="black"/>
<path d="M194 74V68H182V74H188H194Z" fill="black"/>
<path d="M182 68V62H164V68H176H182Z" fill="black"/>
<path d="M164 62V50H158V62H164Z" fill="black"/>
<path d="M164 50H182V44H164V50Z" fill="black"/>
<path d="M182 50V62H206V44H200V56H194H188V50H182Z" fill="black"/>
<path d="M200 44V38H188V44H194H200Z" fill="black"/>
<path d="M188 38V32H158V38H182H188Z" fill="black"/>
<path d="M158 38H146V44H158V38Z" fill="black"/>
<path d="M146 44H140V68H146V44Z" fill="black"/>
<path d="M146 68V74H158V68H152H146Z" fill="black"/>
<path d="M158 74V80H176V74H158Z" fill="black"/>
<path d="M182 92H164V86H158V98H182V92Z" fill="black"/>
<path d="M182 86V92H188V86H182Z" fill="black"/>
<path d="M176 80V86H182V80H176Z" fill="black"/>
<path d="M194 104V98H188V104H194Z" fill="#808080"/>
<path d="M200 80H194V98H200V80Z" fill="#808080"/>
<path d="M194 80V74H188V80H194Z" fill="#808080"/>
<path d="M182 74V68H176V74H182Z" fill="#808080"/>
<path d="M158 62V50H152V68H158H164V62H158Z" fill="#808080"/>
<path d="M164 50V44H158V50H164Z" fill="#808080"/>
<path d="M200 56V44H194V56H200Z" fill="#808080"/>
<path fill-rule="evenodd" clip-rule="evenodd" d="M152 104H188V98H194V80H188V74H182H176V68H164H158V74H176V80H182V86H188V92H182V98H158V86H146V98H152V104ZM182 44H164H158V38H182V44ZM188 44H194V56H188V50H182V44H188ZM158 44V50H152V68H146V44H158Z" fill="#C0C0C0"/>
<path d="M188 44V38H182V44H188Z" fill="#808080"/>
<path d="M158 218V224H194V218H158Z" fill="black"/>
<path d="M194 218H206V212H194V218Z" fill="black"/>
<path d="M206 212H212V206H206V212Z" fill="black"/>
<path d="M212 206H218V164H212V188V206Z" fill="black"/>
<path d="M152 218H158V212H152V218Z" fill="black"/>
<path d="M146 212H152V206H146V212Z" fill="black"/>
<path d="M140 206H146V200H140V206Z" fill="black"/>
<path d="M134 176V182V188V194V200H140V182V176H134Z" fill="black"/>
<path d="M140 170V176H158V170H152H140Z" fill="black"/>
<path d="M164 176H158V182H164V176Z" fill="black"/>
<path d="M188 182H176H170H164V188H188V182Z" fill="black"/>
<path d="M188 176V182H194V176H188Z" fill="black"/>
<path d="M182 176H188V170H182V176Z" fill="black"/>
<path d="M182 152H176V158V164V170H182V164V152Z" fill="black"/>
<path d="M212 164V158H206V164H212Z" fill="black"/>
<path d="M206 158V152H194V158H206Z" fill="black"/>
<path d="M194 152V146H182V152H194Z" fill="black"/>
<path d="M146 158V164H152V158H146Z" fill="black"/>
<path d="M140 158H146V152H140V158Z" fill="black"/>
<path d="M134 152H140V146V122H134V128V134V140V146V152Z" fill="black"/>
<path d="M146 116H140V122H146V116Z" fill="black"/>
<path d="M152 110H146V116H152V110Z" fill="black"/>
<path d="M206 116V110H194V116H206Z" fill="black"/>
<path d="M212 122V116H206V122H212Z" fill="black"/>
<path d="M212 140H218V122H212V128V140Z" fill="black"/>
<path d="M194 140V146H212V140H194Z" fill="black"/>
<path d="M188 134V140H194V134H188Z" fill="black"/>
<path d="M182 134H188V128H158V134H164H170H176H182Z" fill="black"/>
<path d="M206 206H212V188H206V194H200V200H194V206H164V200H152V194H146V182H140V200H146V206H152V212H158V218H194V212H206V206Z" fill="#808000"/>
<path d="M194 152H182V164H188V170H194V176V182H188V188H164V182H158V176H140V182H146V194H152V200H164V206H194V200H200V194H206V188H212V164H206V158H194V152Z" fill="#FFFF00"/>
<path d="M188 176H194V170H188V176Z" fill="#808000"/>
<path d="M182 170H188V164H182V170Z" fill="#808000"/>
<path d="M194 110H152V116H146V122H140V146H146V152H152V134H158V128H188H194V134H206V128H212V122H206V116H194V110Z" fill="#FFFF00"/>
<path d="M212 128H206V134H194V140H212V128Z" fill="#808000"/>
<path d="M194 134V128H188V134H194Z" fill="#808000"/>
<path d="M146 152V146H140V152H146Z" fill="#808000"/>
<path d="M152 152H146V158H152V152Z" fill="#808000"/>
<path d="M182 146V134H176V140V146V152H182V146Z" fill="black"/>
<path d="M176 176H182V170H176V176Z" fill="black"/>
<path d="M176 182V176H170V182H176Z" fill="black"/>
<path d="M110 218V224H152V218H146H140H134H128H122H116H110Z" fill="black"/>
<path d="M104 218H110V212H104V218Z" fill="black"/>
<path d="M86 176V182H92V176H86Z" fill="black"/>
<path d="M80 146V176H86V170V164V158V152V146V140V134H80V140V146Z" fill="black"/>
<path d="M92 122H86V128V134H92V128V122Z" fill="black"/>
<path d="M92 116V122H98V116H92Z" fill="black"/>
<path d="M104 110H98V116H104V110Z" fill="black"/>
<path d="M146 110V104H134H128H122H116H110H104V110H110H116H122H128H134H140H146Z" fill="black"/>
<path d="M128 146H134V140H128V146Z" fill="black"/>
<path d="M134 182H128H122V188H128H134V182Z" fill="black"/>
<path d="M152 170H158V164V158V152V146V140V134H152V152V158V164V170Z" fill="black"/>
<path d="M110 212V218H116V212H110Z" fill="#000080"/>
<path d="M116 212H122V206H116V212Z" fill="#000080"/>
<path d="M122 218H128V212H122V218Z" fill="#000080"/>
<path d="M128 212H134V206H128V212Z" fill="#000080"/>
<path d="M134 218H140V212H134V218Z" fill="#000080"/>
<path d="M146 212V206H140V212H146Z" fill="#000080"/>
<path d="M152 218V212H146V218H152Z" fill="#000080"/>
<path d="M128 218H134V212H128V218Z" fill="#800080"/>
<path d="M134 206V212H140V206H134Z" fill="#800080"/>
<path d="M146 218V212H140V218H146Z" fill="#800080"/>
<path d="M116 218H122V212H116V218Z" fill="#800080"/>
<path d="M122 206V212H128V206H122Z" fill="#800080"/>
<path d="M110 206V212H116V206H110Z" fill="#800080"/>
<path d="M116 206H122V200H116V206Z" fill="#FF00FF"/>
<path d="M122 194V200H128V194H122Z" fill="#FF00FF"/>
<path d="M134 188H128V194H134V188Z" fill="#FF00FF"/>
<path fill-rule="evenodd" clip-rule="evenodd" d="M134 206H140V200H134V194H128V188H122V194H116V200H110V206H116V200H122V206H128V200H134V206ZM128 200H122V194H128V200Z" fill="#0000FF"/>
<path d="M128 206H134V200H128V206Z" fill="#FF00FF"/>
<path d="M98 182V176H92V182H98Z" fill="#FF00FF"/>
<path d="M86 176H92V170H86V176Z" fill="#FF00FF"/>
<path d="M92 170H98V164H92V170Z" fill="#FF00FF"/>
<path d="M92 146H98V140H92V146Z" fill="#FF00FF"/>
<path d="M92 134H86V140H92V134Z" fill="#FF00FF"/>
<path d="M86 146V152H92V146H86Z" fill="#FF00FF"/>
<path d="M92 158H98V152H92V158Z" fill="#FF00FF"/>
<path d="M86 158V164H92V158H86Z" fill="#FF00FF"/>
<path d="M92 128V134H98V128H92Z" fill="#FF00FF"/>
<path d="M98 122V128H104V122H98Z" fill="#FF00FF"/>
<path d="M104 116V122H110V116H104Z" fill="#FF00FF"/>
<path d="M110 128H116V122H110V128Z" fill="#FF00FF"/>
<path d="M116 116V122H122V116H116Z" fill="#FF00FF"/>
<path d="M116 110H110V116H116V110Z" fill="#FF00FF"/>
<path d="M128 110H122V116H128V110Z" fill="#FF00FF"/>
<path d="M122 128H128V122H122V128Z" fill="#FF00FF"/>
<path d="M134 122V116H128V122H134Z" fill="#FF00FF"/>
<path d="M140 110H134V116H140V110Z" fill="#FF00FF"/>
<path d="M104 134H110V128H104V134Z" fill="#800080"/>
<path d="M104 140V134H98V140H104Z" fill="#800080"/>
<path d="M104 152V146H98V152H104Z" fill="#800080"/>
<path d="M104 164V158H98V164H104Z" fill="#800080"/>
<path d="M98 176H104V170H98V176Z" fill="#800080"/>
<path d="M104 170V164H98V170H104Z" fill="#000080"/>
<path d="M104 158V152H98V158H104Z" fill="#000080"/>
<path d="M104 146V140H98V146H104Z" fill="#000080"/>
<path d="M128 140H134V134H128V140Z" fill="#000080"/>
<path d="M134 128H128V134H134V128Z" fill="#800080"/>
<path fill-rule="evenodd" clip-rule="evenodd" d="M134 128V122H128V116H134V110H128V116H122V110H116V116H110V110H104V116H98V122H92V128H98V134H92V140H86V146H92V152H86V158H92V164H86V170H92V176H98V170H92V164H98V158H92V152H98V146H92V140H98V134H104V128H110V122H116V128H122V122H128V128H134ZM122 122H116V116H122V122ZM104 122V116H110V122H104ZM104 128V122H98V128H104Z" fill="#0000FF"/>
<path d="M146 116V110H140V116H146Z" fill="#000080"/>
<path d="M140 122V116H134V122H140Z" fill="#000080"/>
<path d="M158 176H164V170H158V176Z" fill="#000080"/>
<path d="M158 158V164H164V158H158Z" fill="#000080"/>
<path d="M158 146V152H164V146H158Z" fill="#000080"/>
<path d="M164 134H158V140H164V134Z" fill="#000080"/>
<path d="M158 140V146H164V140H158Z" fill="#800080"/>
<path d="M158 152V158H164V152H158Z" fill="#800080"/>
<path fill-rule="evenodd" clip-rule="evenodd" d="M164 176V182H170V176H176V170H170V164H176V158H170V152H176V146H170V140H176V134H170V140H164V146H170V152H164V158H170V164H164V170H170V176H164Z" fill="#0000FF"/>
<path d="M158 164V170H164V164H158Z" fill="#800080"/>
<path d="M164 176H170V170H164V176Z" fill="#FF00FF"/>
<path d="M176 170V164H170V170H176Z" fill="#FF00FF"/>
<path d="M164 158V164H170V158H164Z" fill="#FF00FF"/>
<path d="M176 158V152H170V158H176Z" fill="#FF00FF"/>
<path d="M164 146V152H170V146H164Z" fill="#FF00FF"/>
<path d="M176 146V140H170V146H176Z" fill="#FF00FF"/>
<path d="M170 134H164V140H170V134Z" fill="#FF00FF"/>
</g>
<defs>
<clipPath id="clip0_134_43">
<rect width="256" height="256" fill="white"/>
</clipPath>
</defs>
</svg>
