<svg width="256" height="256" viewBox="0 0 256 256" fill="none" xmlns="http://www.w3.org/2000/svg">
<g clip-path="url(#clip0_145_108)">
<path d="M196 0H60C26.8629 0 0 26.8629 0 60V196C0 229.137 26.8629 256 60 256H196C229.137 256 256 229.137 256 196V60C256 26.8629 229.137 0 196 0Z" fill="#242938"/>
<mask id="mask0_145_108" style="mask-type:luminance" maskUnits="userSpaceOnUse" x="0" y="0" width="256" height="256">
<path d="M196 0H60C26.8629 0 0 26.8629 0 60V196C0 229.137 26.8629 256 60 256H196C229.137 256 256 229.137 256 196V60C256 26.8629 229.137 0 196 0Z" fill="white"/>
</mask>
<g mask="url(#mask0_145_108)">
<path d="M128.214 151.318L128.25 151.224C128.197 150.986 128.179 150.932 128.214 151.318Z" fill="#EB780B"/>
<path d="M127.152 207.177C126.442 205.666 124.286 201.73 123.204 200.469C120.853 197.72 120.304 197.512 119.613 194.041C118.411 187.996 115.23 177.033 111.482 169.467C109.546 165.563 106.326 162.283 103.379 159.451C100.805 156.967 95.0062 152.788 93.9949 152.995C84.523 154.885 81.5848 164.17 77.1295 171.526C74.6645 175.594 72.0526 179.054 70.1103 183.382C68.3165 187.362 68.4757 191.769 65.4045 195.186C62.2545 198.695 60.207 202.426 58.6637 206.959C58.3714 207.822 57.5394 216.878 56.6363 219.012L70.7134 218.022C83.8318 218.915 80.043 223.94 100.518 222.845L132.847 221.845C131.845 218.884 130.464 215.454 129.932 214.34C129.031 212.463 127.897 208.791 127.152 207.177Z" fill="#EB780B"/>
<path d="M168.135 140.267C165.65 142.06 160.793 146.372 150.228 148.003C145.486 148.735 141.051 148.795 136.183 148.553C133.8 148.438 131.553 148.316 129.164 148.285C127.756 148.275 123.035 148.125 123.269 148.576L122.743 149.887C122.825 150.318 122.996 151.395 123.044 151.656C123.238 152.715 123.292 153.558 123.332 154.531C123.405 156.533 123.167 158.62 123.269 160.64C123.481 164.83 125.036 168.649 125.233 172.877C125.448 177.583 127.777 182.563 130.03 186.407C130.885 187.871 132.187 188.038 132.754 189.84C133.419 191.905 132.79 194.095 133.113 196.296C134.381 204.829 136.84 213.749 140.685 221.451C140.712 221.516 140.742 221.586 140.776 221.644C145.523 220.847 150.28 219.141 156.449 218.229C167.759 216.552 183.49 217.416 193.594 216.47C219.161 214.068 233.037 226.951 256 221.671V32.2374C256 14.4347 241.566 0 223.749 0H32.2522C14.442 0 0.0014981 14.4347 0.0014981 32.2374V102.575C4.61603 100.907 11.2533 91.0937 13.3332 88.7073C16.972 84.534 17.6323 79.2108 19.4447 75.8584C23.5721 68.2229 24.2819 62.9724 33.6641 62.9724C38.0374 62.9724 39.774 63.9801 42.7323 67.9478C44.7906 70.7068 48.3459 75.8043 50.0098 79.2124C51.9305 83.1445 55.0605 88.4646 56.4368 89.5388C57.4559 90.3364 58.4672 90.9345 59.4105 91.2885C60.9322 91.8588 62.191 90.8124 63.2086 90.0025C64.5076 88.9685 65.0674 86.8618 66.2705 84.0518C68.004 79.9976 69.8938 75.1396 70.9685 73.4441C72.8289 70.5135 73.4629 67.0359 75.4717 65.3511C78.4347 62.8673 82.3008 62.6926 83.3647 62.4824C89.3169 61.3077 92.0231 65.3496 94.9552 67.9632C96.8743 69.6758 99.497 73.1257 101.359 77.7487C102.814 81.3593 104.667 84.6994 105.441 86.7845C106.19 88.7969 108.038 92.0227 109.133 95.8898C110.127 99.4015 112.789 102.092 113.8 103.762C113.8 103.762 115.348 108.096 124.761 112.057C126.802 112.917 130.928 114.314 133.39 115.209C137.48 116.694 141.442 116.501 146.487 115.897C150.084 115.897 152.032 110.691 153.667 106.522C154.633 104.059 155.56 96.9981 156.191 94.9934C156.801 93.0428 155.372 91.5342 156.59 89.8248C158.012 87.8293 158.858 87.7211 159.679 85.1198C161.444 79.5493 171.642 79.268 177.375 79.268C182.153 79.268 181.546 83.905 189.652 82.3191C194.294 81.4087 198.768 82.9173 203.697 84.2218C207.847 85.3223 211.749 86.5758 214.087 89.3116C215.6 91.0829 219.354 99.958 215.528 100.337C215.896 100.786 216.166 101.598 216.854 102.043C216.002 105.391 212.293 103.006 210.233 102.576C207.458 102.001 205.498 102.663 202.783 103.864C198.14 105.93 191.35 105.689 187.306 109.056C183.875 111.909 183.881 118.278 182.28 121.847C182.28 121.847 177.836 133.276 168.135 140.267Z" fill="#EB780B"/>
<path d="M60.8519 156.497C58.6436 156.273 56.593 156.021 54.4481 155.589C50.4429 154.782 46.0665 153.995 42.1216 153.051C39.7261 152.471 31.7466 149.647 30.013 148.851C25.9475 146.978 23.2474 141.888 20.0695 142.412C18.0406 142.743 16.0643 143.438 14.8024 145.483C13.7725 147.151 13.423 150.018 12.7101 151.941C11.8827 154.173 10.4538 156.256 9.20278 158.383C6.9017 162.284 2.76037 165.813 0.975795 169.614C0.617024 170.396 0.29846 171.271 0 172.183V215.635C2.08149 215.991 4.25886 216.428 6.69602 217.079C24.6825 221.875 29.0713 222.281 46.7129 220.264L48.3676 220.045C49.7176 217.238 50.7599 207.673 51.6352 204.714C52.3171 202.445 53.2543 200.636 53.6099 198.319C53.9455 196.118 53.579 194.021 53.3904 192.021C52.8955 187.01 57.0415 185.22 59.0209 180.917C60.8055 177.023 61.8354 172.594 63.3122 168.614C64.7288 164.794 66.9401 159.397 70.7119 157.474C70.2541 156.941 62.8328 156.695 60.8519 156.497Z" fill="#EB780B"/>
</g>
</g>
<defs>
<clipPath id="clip0_145_108">
<rect width="256" height="256" fill="white"/>
</clipPath>
</defs>
</svg>
