<svg width="256" height="256" viewBox="0 0 256 256" fill="none" xmlns="http://www.w3.org/2000/svg">
<g clip-path="url(#clip0_134_37)">
<path d="M196 0H60C26.8629 0 0 26.8629 0 60V196C0 229.137 26.8629 256 60 256H196C229.137 256 256 229.137 256 196V60C256 26.8629 229.137 0 196 0Z" fill="#242938"/>
<path d="M91.4 186.557C58.4 186.557 32 159.948 32 126.686C32 93.424 58.4 66.8145 91.4 66.8145H161C194 66.8145 220.4 93.424 220.4 126.686C220.4 159.948 194 186.557 161 186.557H91.4ZM159.2 165.391C180.8 165.391 197.6 147.853 197.6 126.686C197.6 104.914 180.2 87.9811 159.2 87.9811H93.2C71.6 87.9811 54.8 105.519 54.8 126.686C54.8 147.853 72.2 165.391 93.2 165.391H159.2Z" fill="#C74634"/>
</g>
<defs>
<clipPath id="clip0_134_37">
<rect width="256" height="256" fill="white"/>
</clipPath>
</defs>
</svg>
