<svg width="256" height="256" viewBox="0 0 256 256" fill="none" xmlns="http://www.w3.org/2000/svg">
<g clip-path="url(#clip0_138_2)">
<path d="M196 0H60C26.8629 0 0 26.8629 0 60V196C0 229.137 26.8629 256 60 256H196C229.137 256 256 229.137 256 196V60C256 26.8629 229.137 0 196 0Z" fill="#242938"/>
<path d="M138 120L107 105C90.7525 108.701 83.95 111.639 76.1561 118.5C74.4521 127.699 80.8971 129.866 98.546 135.802C106.183 138.371 115.919 141.645 128 146.5C131.909 147.908 135.773 149.268 139.404 150.545C139.406 150.546 139.408 150.547 139.41 150.547L139.413 150.548C151.934 154.953 161.687 158.384 161 159.5C166.256 156.756 168.771 155.096 171.006 151.5C174.66 138.756 166.195 134.425 139.872 120.958C139.257 120.644 138.634 120.324 138 120Z" fill="#590815"/>
<path d="M128 224C181.019 224 224 181.019 224 128C224 112.342 220.251 97.5587 213.602 84.5C141.919 96.5343 114.877 101.514 107 105L138 120C138.634 120.324 139.257 120.644 139.872 120.958C166.195 134.425 174.66 138.756 171.006 151.5C170.447 153.449 169.605 155.595 168.5 158C160.533 175.34 148.534 177.98 111.655 186.092C98.5543 188.974 82.3142 192.547 62 197.714C79.204 214.007 102.435 224 128 224Z" fill="#B2001D"/>
<path d="M128 32C74.9807 32 32 74.9807 32 128C32 153.081 41.6182 175.915 57.3673 193.016C116.139 177.673 160.409 161.276 161 159.5C161.687 158.384 151.934 154.953 139.413 150.548L139.41 150.547L139.404 150.545C135.773 149.268 131.909 147.908 128 146.5C115.919 141.645 106.183 138.371 98.546 135.802C80.8971 129.866 74.4521 127.699 76.1561 118.5C76.9802 114.051 79.71 107.959 84 99C96.536 72.8219 100.928 71.5556 166.859 52.547C171.447 51.2241 176.334 49.8152 181.542 48.306C166.246 38.0094 147.825 32 128 32Z" fill="#B2001D"/>
</g>
<defs>
<clipPath id="clip0_138_2">
<rect width="256" height="256" fill="white"/>
</clipPath>
</defs>
</svg>
