<svg width="256" height="256" viewBox="0 0 256 256" fill="none" xmlns="http://www.w3.org/2000/svg">
<g clip-path="url(#clip0_147_106)">
<path d="M196 0H60C26.8629 0 0 26.8629 0 60V196C0 229.137 26.8629 256 60 256H196C229.137 256 256 229.137 256 196V60C256 26.8629 229.137 0 196 0Z" fill="#242938"/>
<path d="M32 169.143H86.8571V224H32V169.143Z" fill="#3D7090"/>
<path d="M100.571 169.143H155.429V224H100.571V169.143Z" fill="#3D7090"/>
<path d="M100.571 100.571H155.429V155.429H100.571V100.571Z" fill="#3D7090"/>
<path d="M169.143 100.571H224V155.429H169.143V100.571Z" fill="#3D7090"/>
<path d="M169.143 32H224V86.8571H169.143V32Z" fill="#3D7090"/>
<path d="M100.571 32H155.429V86.8571H100.571V32Z" fill="#3D7090"/>
<path d="M32 100.571H86.8571V155.429H32V100.571Z" fill="#3D7090"/>
</g>
<defs>
<clipPath id="clip0_147_106">
<rect width="256" height="256" fill="white"/>
</clipPath>
</defs>
</svg>
