<svg width="256" height="256" viewBox="0 0 256 256" fill="none" xmlns="http://www.w3.org/2000/svg">
<g clip-path="url(#clip0_134_41)">
<path d="M196 0H60C26.8629 0 0 26.8629 0 60V196C0 229.137 26.8629 256 60 256H196C229.137 256 256 229.137 256 196V60C256 26.8629 229.137 0 196 0Z" fill="#242938"/>
<path d="M123.614 123.614V98.2741H133.36V123.614H158.701V133.36H133.36V158.701H123.614V133.36H98.2741V123.614H123.614Z" fill="#F58220"/>
<path d="M200.232 125.186V108.02H206.834V125.186H224V131.788H206.834V148.954H200.232V131.788H183.066V125.186H200.232Z" fill="#576EB2"/>
<path d="M49.1659 125.186V108.02H55.7681V125.186H72.934V131.788H55.7681V148.954H49.1659V131.788H32V125.186H49.1659Z" fill="#63A5B9"/>
<path d="M124.212 49.1659V32H130.814V49.1659H147.98V55.7681H130.814V72.934H124.212V55.7681H107.046V49.1659H124.212Z" fill="#63A5B9"/>
<path d="M124.212 200.232V183.066H130.814V200.232H147.98V206.834H130.814V224H124.212V206.834H107.046V200.232H124.212Z" fill="#576EB2"/>
<path d="M73.8143 73.8143V50.5178H82.7745V73.8143H106.071V82.7745H82.7745V106.071H73.8143V82.7745H50.5178V73.8143H73.8143Z" fill="#FBAF3C"/>
<path d="M73.8143 173.225V149.929H82.7745V173.225H106.071V182.186H82.7745V205.482H73.8143V182.186H50.5178V173.225H73.8143Z" fill="#CD2033"/>
<path d="M173.225 173.225V149.929H182.186V173.225H205.482V182.186H182.186V205.482H173.225V182.186H149.929V173.225H173.225Z" fill="#26569A"/>
<path d="M173.225 73.8143V50.5178H182.186V73.8143H205.482V82.7745H182.186V106.071H173.225V82.7745H149.929V73.8143H173.225Z" fill="#63A5B9"/>
</g>
<defs>
<clipPath id="clip0_134_41">
<rect width="256" height="256" fill="white"/>
</clipPath>
</defs>
</svg>
