<svg width="256" height="256" viewBox="0 0 256 256" fill="none" xmlns="http://www.w3.org/2000/svg">
<g clip-path="url(#clip0_131_80)">
<path d="M196 0H60C26.8629 0 0 26.8629 0 60V196C0 229.137 26.8629 256 60 256H196C229.137 256 256 229.137 256 196V60C256 26.8629 229.137 0 196 0Z" fill="#242938"/>
<path d="M103.034 53.3061L59.8734 28L33 43.102V61.4694L91.6329 205.551L129.093 228V173.714L111.584 162.286L76.5675 82.6939V68.67L103.034 53.3061Z" fill="#1E74F4"/>
<path d="M155.966 53.3061V68.67L129.093 132.082V152.898L147.416 162.286L183.247 82.6939V68.67L155.966 53.3061Z" fill="#1E74F4"/>
<path d="M226 43.102L199.941 28L155.966 53.3061L183.247 68.67L226 43.102Z" fill="#1E74F4"/>
<path d="M129.093 173.714L147.416 162.286L129.093 152.898L111.584 162.286L129.093 173.714Z" fill="#1E74F4"/>
<path d="M129.093 228L167.774 205.551L226 61.4694V43.102L183.247 68.67V82.6939L147.416 162.286L129.093 173.714V228Z" fill="#0E5CCD"/>
<path d="M129.093 132.082L103.034 68.67V53.3061L76.5675 68.67V82.6939L111.584 162.286L129.093 152.898V132.082Z" fill="#115DCC"/>
</g>
<defs>
<clipPath id="clip0_131_80">
<rect width="256" height="256" fill="white"/>
</clipPath>
</defs>
</svg>
