<svg width="256" height="256" viewBox="0 0 256 256" fill="none" xmlns="http://www.w3.org/2000/svg">
<g clip-path="url(#clip0_134_31)">
<path d="M196 0H60C26.8629 0 0 26.8629 0 60V196C0 229.137 26.8629 256 60 256H196C229.137 256 256 229.137 256 196V60C256 26.8629 229.137 0 196 0Z" fill="#F4F2ED"/>
<path d="M222.666 135.647C222.339 135.647 222.042 135.865 221.888 136.321C219.92 142.114 217.261 145.56 215.072 145.56C213.814 145.56 213.306 144.114 213.306 141.847C213.306 136.172 216.598 124.14 218.259 118.654C218.451 117.991 218.576 117.396 218.576 116.891C218.576 115.297 217.731 114.515 215.638 114.515C213.382 114.515 210.954 115.426 208.592 119.694C207.776 115.931 205.309 114.287 201.862 114.287C197.878 114.287 194.029 116.931 190.861 121.219C187.693 125.507 183.968 126.913 181.165 126.22C183.181 121.13 183.93 117.327 183.93 114.505C183.93 110.078 181.808 107.405 178.381 107.405C173.168 107.405 170.163 112.534 170.163 117.931C170.163 122.1 171.997 126.388 176.029 128.468C172.65 136.35 167.715 143.48 165.843 143.48C163.424 143.48 162.714 131.27 162.848 122.536C162.934 117.525 163.338 117.268 163.338 115.753C163.338 114.881 162.79 114.287 160.592 114.287C155.466 114.287 153.882 118.763 153.642 123.903C153.564 125.856 153.268 127.793 152.758 129.676C150.618 137.559 146.202 143.54 143.322 143.54C141.987 143.54 141.622 142.163 141.622 140.361C141.622 134.687 144.704 127.596 144.704 121.546C144.704 117.099 142.813 114.287 139.251 114.287C135.056 114.287 129.507 119.436 124.256 129.082C125.984 121.694 126.694 114.544 121.578 114.544C120.468 114.562 119.378 114.854 118.4 115.396C118.072 115.554 117.797 115.811 117.612 116.132C117.427 116.454 117.341 116.825 117.363 117.198C117.853 125.061 111.219 145.204 104.931 145.204C103.789 145.204 103.232 143.926 103.232 141.866C103.232 136.182 106.515 124.18 108.166 118.684C108.378 117.971 108.493 117.357 108.493 116.822C108.493 115.317 107.59 114.544 105.546 114.544C103.299 114.544 100.861 115.426 98.5088 119.694C97.6832 115.931 95.216 114.287 91.7696 114.287C86.1152 114.287 79.7984 120.456 77.024 128.498C73.3088 139.232 65.8208 149.6 55.7408 149.6C46.592 149.6 41.7632 141.747 41.7632 129.339C41.7632 111.425 54.512 96.7887 63.968 96.7887C68.4896 96.7887 70.6496 99.7595 70.6496 104.315C70.6496 109.831 67.664 112.396 67.664 114.495C67.664 115.139 68.1824 115.772 69.2096 115.772C73.3184 115.772 78.1568 110.791 78.1568 103.998C78.1568 97.2046 72.8096 92.2334 63.3536 92.2334C47.7248 92.2334 32 108.454 32 129.24C32 145.778 39.9104 155.75 53.5904 155.75C62.9216 155.75 71.072 148.264 75.4688 139.529C75.968 146.768 79.1552 150.551 84.0128 150.551C88.3328 150.551 91.8272 147.897 94.496 143.233C95.5232 148.115 98.2496 150.502 101.792 150.502C105.853 150.502 109.251 147.848 112.486 142.916C112.438 146.788 113.293 150.432 116.547 150.432C118.083 150.432 119.917 150.066 120.243 148.679C123.67 134.063 132.138 122.13 134.73 122.13C135.498 122.13 135.709 122.893 135.709 123.794C135.709 127.765 132.992 135.905 132.992 141.104C132.992 146.719 135.306 150.432 140.086 150.432C145.386 150.432 150.771 143.738 154.362 133.954C155.485 143.094 157.914 150.472 161.715 150.472C166.381 150.472 174.666 140.341 179.686 129.617C181.654 129.874 184.611 129.805 187.453 127.735C186.243 130.894 185.533 134.35 185.533 137.806C185.533 147.758 190.141 150.551 194.106 150.551C198.416 150.551 201.91 147.897 204.589 143.233C205.472 147.442 207.728 150.492 211.875 150.492C218.365 150.492 224 143.649 224 138.034C224 136.548 223.386 135.647 222.666 135.647ZM87.968 145.035C85.3472 145.035 84.32 142.312 84.32 138.252C84.32 131.201 88.9952 119.427 93.9392 119.427C96.0992 119.427 96.9152 122.051 96.9152 125.259C96.9152 132.419 92.4704 145.035 87.968 145.035ZM177.738 123.992C176.173 122.071 175.606 119.456 175.606 117.129C175.606 114.257 176.624 111.831 177.843 111.831C179.062 111.831 179.437 113.069 179.437 114.792C179.437 117.674 178.438 121.882 177.738 123.992ZM198.061 145.035C195.44 145.035 194.413 141.906 194.413 138.252C194.413 131.449 199.088 119.427 204.07 119.427C206.23 119.427 206.998 122.031 206.998 125.259C206.998 132.419 202.63 145.035 198.061 145.035Z" fill="url(#paint0_linear_134_31)"/>
</g>
<defs>
<linearGradient id="paint0_linear_134_31" x1="36.5" y1="99" x2="266.5" y2="188.5" gradientUnits="userSpaceOnUse">
<stop stop-color="#02C5D7"/>
<stop offset="1" stop-color="#7B29EF"/>
</linearGradient>
<clipPath id="clip0_134_31">
<rect width="256" height="256" fill="white"/>
</clipPath>
</defs>
</svg>
