<svg width="256" height="256" viewBox="0 0 256 256" fill="none" xmlns="http://www.w3.org/2000/svg">
<g clip-path="url(#clip0_145_63)">
<path d="M196 0H60C26.8629 0 0 26.8629 0 60V196C0 229.137 26.8629 256 60 256H196C229.137 256 256 229.137 256 196V60C256 26.8629 229.137 0 196 0Z" fill="#F4F2ED"/>
<path d="M99.2338 218.481C107.327 221.714 116.108 223.634 125.327 223.953C137.804 224.385 149.669 221.824 160.276 216.96C147.556 212 136.037 204.746 126.205 195.726C119.832 205.855 110.406 213.855 99.2338 218.481Z" fill="#FF9100"/>
<path d="M126.203 195.729C103.761 175.126 90.1463 145.305 91.2969 112.598C91.3343 111.535 91.3908 110.474 91.4568 109.413C87.4374 108.381 83.2413 107.751 78.9229 107.602C72.7417 107.387 66.7557 108.148 61.1044 109.728C55.1135 120.145 51.4982 132.098 51.0478 144.9C49.8855 177.94 70.0284 206.81 99.232 218.484C110.405 213.858 119.83 205.867 126.203 195.729Z" fill="#FFC400"/>
<path d="M126.204 195.728C131.422 187.44 134.586 177.722 134.954 167.253C135.923 139.713 117.272 116.023 91.4578 109.412C91.3918 110.473 91.3352 111.534 91.2979 112.597C90.1472 145.304 103.762 175.125 126.204 195.728Z" fill="#FF9100"/>
<path d="M132.067 32C117.365 43.6914 105.756 59.1074 98.7319 76.8663C94.7105 87.0384 92.1835 97.9649 91.4457 109.419C117.26 116.029 135.911 139.72 134.942 167.26C134.574 177.729 131.401 187.437 126.192 195.735C136.024 204.764 147.544 212.009 160.263 216.969C185.794 205.255 203.908 180.047 204.957 150.231C205.636 130.913 198.159 113.697 187.594 99.1642C176.436 83.7945 132.067 32 132.067 32Z" fill="#DD2C00"/>
</g>
<defs>
<clipPath id="clip0_145_63">
<rect width="256" height="256" fill="white"/>
</clipPath>
</defs>
</svg>
