<svg width="256" height="256" viewBox="0 0 256 256" fill="none" xmlns="http://www.w3.org/2000/svg">
<g clip-path="url(#clip0_138_14)">
<path d="M196 0H60C26.8629 0 0 26.8629 0 60V196C0 229.137 26.8629 256 60 256H196C229.137 256 256 229.137 256 196V60C256 26.8629 229.137 0 196 0Z" fill="#F4F2ED"/>
<path fill-rule="evenodd" clip-rule="evenodd" d="M62.7093 221.873L91.9466 191.202H127.738C131.201 191.202 134.417 189.411 136.24 186.466L164.358 141.049C166.145 138.162 166.345 134.565 164.889 131.498L150.68 101.555H181.463C184.95 101.555 188.186 99.7386 190.001 96.761L221.75 44.685C225.407 38.6876 221.09 31 214.066 31H77.7357C74.2335 31 70.9865 32.8321 69.1759 35.8299L41.6907 81.3359C40.0065 84.1244 39.7861 87.5585 41.1001 90.5395L58.0302 128.948L33.4173 170.11C31.7351 172.923 31.5385 176.382 32.891 179.368L51.2662 219.932C53.314 224.452 59.2851 225.465 62.7093 221.873ZM134.135 90.7642L112.628 41.7904H80.5956C79.4274 41.7904 78.3457 42.4085 77.7497 43.4167L53.4636 84.4964C51.8281 87.263 53.8152 90.7642 57.021 90.7642H134.135ZM139.099 101.555H58.8577L67.13 120.646H147.371L139.099 101.555ZM72.0933 131.437H149.144C152.364 131.437 154.349 134.966 152.685 137.732L128.483 177.976C127.884 178.972 126.809 179.581 125.65 179.581H92.7741L72.0933 131.437ZM63.821 141.398L80.7176 179.581H48.7096C45.5124 179.581 43.5241 176.097 45.1425 173.33L63.821 141.398ZM124.209 41.7904L145.717 90.7642H178.576C179.744 90.7642 180.826 90.1461 181.422 89.1379L205.708 48.0582C207.343 45.2917 205.356 41.7904 202.151 41.7904H124.209ZM59.7179 208.561L77.0567 190.372H50.5854L58.3615 208.318C58.5972 208.862 59.3092 208.99 59.7179 208.561Z" fill="#5B47FA"/>
</g>
<defs>
<clipPath id="clip0_138_14">
<rect width="256" height="256" fill="white"/>
</clipPath>
</defs>
</svg>
