<svg width="256" height="256" viewBox="0 0 256 256" fill="none" xmlns="http://www.w3.org/2000/svg">
<g clip-path="url(#clip0_147_92)">
<path d="M196 0H60C26.8629 0 0 26.8629 0 60V196C0 229.137 26.8629 256 60 256H196C229.137 256 256 229.137 256 196V60C256 26.8629 229.137 0 196 0Z" fill="#F4F2ED"/>
<path fill-rule="evenodd" clip-rule="evenodd" d="M45.1886 96.1608C36.7441 104.606 32 116.059 32 128.002C32 139.944 36.7441 151.398 45.1886 159.843L96.1643 210.811C104.609 219.256 116.063 224 128.005 224C139.948 224 151.401 219.256 159.846 210.811L210.815 159.836C219.257 151.391 224 139.939 224 127.998C224 116.057 219.257 104.605 210.815 96.1608L159.839 45.1852C151.395 36.7428 139.943 32 128.002 32C116.061 32 104.609 36.7428 96.1643 45.1852L45.1886 96.1608ZM128.002 159.527C132.142 159.527 136.242 158.712 140.067 157.127C143.893 155.543 147.368 153.22 150.296 150.293C153.224 147.365 155.546 143.889 157.131 140.064C158.715 136.239 159.531 132.139 159.531 127.998C159.531 123.858 158.715 119.758 157.131 115.933C155.546 112.107 153.224 108.632 150.296 105.704C147.368 102.776 143.893 100.454 140.067 98.8694C136.242 97.2849 132.142 96.4694 128.002 96.4694C119.64 96.4694 111.62 99.7912 105.707 105.704C99.7946 111.617 96.4728 119.636 96.4728 127.998C96.4728 136.36 99.7946 144.38 105.707 150.293C111.62 156.205 119.64 159.527 128.002 159.527Z" fill="#2563EB"/>
</g>
<defs>
<clipPath id="clip0_147_92">
<rect width="256" height="256" fill="white"/>
</clipPath>
</defs>
</svg>
