<svg width="256" height="256" viewBox="0 0 256 256" fill="none" xmlns="http://www.w3.org/2000/svg">
<g clip-path="url(#clip0_134_29)">
<path d="M196 0H60C26.8629 0 0 26.8629 0 60V196C0 229.137 26.8629 256 60 256H196C229.137 256 256 229.137 256 196V60C256 26.8629 229.137 0 196 0Z" fill="#F4F2ED"/>
<path d="M211.003 79.1969L126.916 126.936V223.5L202.214 180.75C207.646 177.666 211.003 171.901 211.003 165.654V79.1969Z" fill="#4285F4"/>
<path d="M126.916 126.936L45 79.1969V165.785C45 171.962 48.2821 177.673 53.6189 180.784L126.916 223.5V126.936Z" fill="#083042"/>
<path d="M126.916 126.936L211.003 79.1969L135.526 36.8322C130.188 33.836 123.666 33.8727 118.362 36.9286L45 79.1969L126.916 126.936Z" fill="#3DDC84"/>
<path d="M126.799 185.526V126.936L77.0071 98.0444V146.595C77.0071 152.779 80.2968 158.497 85.6433 161.604L126.799 185.526Z" fill="#041619"/>
<path fill-rule="evenodd" clip-rule="evenodd" d="M169.105 161.571L126.799 185.526V126.936L177.911 98.0444V146.465C177.911 152.719 174.547 158.489 169.105 161.571Z" fill="#3870B2"/>
<path d="M126.799 126.936L177.911 98.0444L135.391 74.2418C130.062 71.2586 123.557 71.2951 118.262 74.3379L77.0071 98.0444L126.799 126.936Z" fill="#37BF6E"/>
<path d="M157.533 148.521L130.048 164.265C128.18 165.335 125.881 165.322 124.024 164.231L97.3256 148.532C95.4925 147.454 94.3668 145.486 94.3668 143.36V111.4C94.3668 109.263 95.5037 107.287 97.3514 106.213L124.05 90.6922C125.893 89.6206 128.167 89.6078 130.022 90.6585L157.508 106.224C159.388 107.289 160.551 109.284 160.551 111.445V143.314C160.551 145.465 159.4 147.451 157.533 148.521Z" fill="white"/>
</g>
<defs>
<clipPath id="clip0_134_29">
<rect width="256" height="256" fill="white"/>
</clipPath>
</defs>
</svg>
