<svg width="256" height="256" viewBox="0 0 256 256" fill="none" xmlns="http://www.w3.org/2000/svg">
<g clip-path="url(#clip0_147_104)">
<path d="M196 0H60C26.8629 0 0 26.8629 0 60V196C0 229.137 26.8629 256 60 256H196C229.137 256 256 229.137 256 196V60C256 26.8629 229.137 0 196 0Z" fill="#F4F2ED"/>
<path d="M131.034 185.134C130.967 185.63 130.543 186 130.043 186H59.0001C58.4478 186 58.0001 185.552 58.0001 185V70C58.0001 69.4477 58.4478 69 59.0001 69H81.2459C81.7982 69 82.2459 69.4477 82.2459 70V164.16H132.722C133.327 164.16 133.794 164.694 133.713 165.294L131.034 185.134Z" fill="#3098E4"/>
<path d="M169.844 185C169.844 185.552 169.396 186 168.844 186H147.369C146.821 186 146.375 185.59 146.369 185.042C146.275 176.721 145.598 116.816 145.598 109.56C145.598 104.046 145.207 100.091 144.978 98.2468C144.902 97.6334 145.376 97.08 145.994 97.08C149.929 97.08 162.52 97.08 165.151 97.08C168.279 97.08 168.787 103.351 169.061 109.56C177.265 99.7372 183.753 96.9892 196.903 95.6289C197.49 95.5682 198 96.0301 198 96.6198V119.447C198 120.012 197.528 120.464 196.963 120.45C183.088 120.097 177.279 122.107 169.844 128.28V185Z" fill="#3098E4"/>
</g>
<defs>
<clipPath id="clip0_147_104">
<rect width="256" height="256" fill="white"/>
</clipPath>
</defs>
</svg>
