<svg width="256" height="256" viewBox="0 0 256 256" fill="none" xmlns="http://www.w3.org/2000/svg">
<g clip-path="url(#clip0_145_133)">
<path d="M196 0H60C26.8629 0 0 26.8629 0 60V196C0 229.137 26.8629 256 60 256H196C229.137 256 256 229.137 256 196V60C256 26.8629 229.137 0 196 0Z" fill="#F4F2ED"/>
<path d="M33.737 185.74C73.4242 189.156 72.0556 165.925 107.637 169.342C132.955 174.124 139.797 173.441 139.797 173.441C136.165 180.973 133.293 184.897 128.165 191.889C142.553 192.795 151.414 188.414 169.221 168.658C177.432 176.858 189.748 177.541 195.907 171.391C183.59 159.776 191.117 144.744 194.538 133.129C196.752 125.613 196.591 124.247 200.012 113.314C201.275 81.793 224.674 88.6625 223.985 70.5918C223.229 70.6864 222.539 70.7538 221.909 70.7945C221.782 75.4238 218.785 81.1639 210.961 85.3005C198.804 92.3817 195.299 104.969 191.503 118.606C187.606 132.601 183.402 147.702 169.221 159.093L169.905 152.26C156.507 180.676 148.581 184.762 132.955 189.156C144.587 172.075 145.956 163.875 147.324 152.26L139.797 163.875L109.006 162.509C85.0719 161.806 76.3458 168.334 68.2425 174.397C60.5921 180.12 53.4969 185.428 34.6836 183.844C34.3687 184.402 34.0529 185.03 33.737 185.74Z" fill="#1F305F"/>
<path d="M215.066 65.7327C212.062 66.7982 208.211 68.1073 203.434 68.9025C201.932 69.1525 200.521 69.3212 199.169 69.483C189.432 70.6477 182.706 71.4523 166.484 99.6492C152.477 119.993 141.432 123.182 117.365 130.132C115.566 130.651 113.694 131.192 111.743 131.762C108.689 132.878 105.99 133.785 103.539 134.61C88.9658 139.51 83.1745 141.458 63.8445 166.609C61.5346 168.915 58.1283 168.91 53.7796 168.904C47.8225 168.895 40.0971 168.883 31 174.808C34.4421 176.772 36.4707 176.971 38.6094 177.182C39.4469 177.264 40.3012 177.348 41.2639 177.541C40.6717 178.132 40.0226 178.553 39.3329 179C37.9078 179.923 36.3097 180.959 34.6836 183.844C53.4969 185.428 60.5921 180.12 68.2425 174.397C76.3458 168.334 85.0719 161.806 109.006 162.509L139.797 163.875L147.324 152.26C145.956 163.875 144.587 172.075 132.955 189.156C148.581 184.762 156.507 180.676 169.905 152.26L169.221 159.093C183.402 147.702 187.606 132.601 191.503 118.606C195.299 104.969 198.804 92.3817 210.961 85.3005C218.785 81.1639 221.782 75.4238 221.909 70.7945C216.34 71.1533 215.428 69.4171 215.066 65.7327Z" fill="#C0765A"/>
<path d="M223.985 70.5918C223.927 69.0775 223.7 67.388 223.277 65.486C222.479 63.0935 220.049 63.9587 215.716 65.5017L215.714 65.5023L215.688 65.5117C215.485 65.584 215.277 65.6577 215.066 65.7327C215.428 69.4171 216.34 71.1533 221.909 70.7945C222.539 70.7538 223.229 70.6864 223.985 70.5918Z" fill="#1F305F"/>
<path d="M201.381 74.3683C195.907 74.3683 192.485 75.0516 192.485 80.5177C200.012 80.5177 201.381 78.4679 201.381 74.3683Z" fill="#1F305F"/>
<path d="M213.698 70.2688C213.248 69.9664 205.486 77.1013 204.802 81.8839C206.855 77.1014 212.329 71.6353 213.698 70.2688Z" fill="#1F305F"/>
<path d="M214.382 70.952C213.933 70.6496 207.539 77.793 206.855 82.5756C208.908 77.7846 213.013 72.3186 214.382 70.952Z" fill="#1F305F"/>
<path d="M215.066 71.6355C214.617 71.3331 210.961 77.7849 210.276 82.5675C212.329 77.7846 213.698 73.6855 215.066 71.6355Z" fill="#1F305F"/>
<path d="M215.75 72.3186C214.382 75.0516 213.013 77.7924 212.329 82.575C213.698 79.1512 215.066 75.0516 215.75 72.3186Z" fill="#1F305F"/>
</g>
<defs>
<clipPath id="clip0_145_133">
<rect width="256" height="256" fill="white"/>
</clipPath>
</defs>
</svg>
