<svg width="256" height="256" viewBox="0 0 256 256" fill="none" xmlns="http://www.w3.org/2000/svg">
<g clip-path="url(#clip0_134_47)">
<path d="M196 0H60C26.8629 0 0 26.8629 0 60V196C0 229.137 26.8629 256 60 256H196C229.137 256 256 229.137 256 196V60C256 26.8629 229.137 0 196 0Z" fill="#F4F2ED"/>
<path fill-rule="evenodd" clip-rule="evenodd" d="M129.065 224C60.3258 221.979 37.2901 199.406 39.0977 184.589C40.3031 174.709 49.9262 165.355 60.6883 154.894C74.1408 141.817 89.3729 127.011 92.1687 107.284C94.65 84.2498 80.5432 71.4105 78.5215 69.8947C49.7116 47.1579 87.1139 38.5684 115.924 32C117.128 53.6678 120.484 60.0997 125.137 69.0183L125.331 69.3895L119.131 68.253C116.952 64.0602 115.924 61.4126 114.407 56.7579C110.93 60.6141 108.167 62.5564 103.875 65.4563L72.9617 59.7895L89.1356 80L94.19 95.1579V110.821L87.1139 129.011L70.9399 149.221L84.5867 144.674L107.837 135.074L115.797 132.573L101.772 139.116C105.272 146.718 107.513 150.624 112.891 155.789C115.002 147.191 115.905 142.023 116.916 132.221L143.217 123.958L145.947 125.131C152.378 149.852 154.351 183.693 129.065 224ZM116.916 132.221C116.922 132.162 116.928 132.102 116.935 132.042L115.797 132.573L116.916 132.221ZM103.875 65.4563C103.682 65.5864 103.487 65.7184 103.288 65.8526L119.462 68.8842C119.349 68.6698 119.239 68.4595 119.131 68.253L103.875 65.4563ZM111.375 37.5579C111.429 42.766 111.852 45.4829 112.891 50.1895L86.103 44.6316C95.3232 41.3923 100.802 39.8048 111.375 37.5579ZM78.5214 48.6737L89.641 62.821L72.4562 58.7789C72.1587 53.9796 73.7101 51.8385 78.5214 48.6737ZM141.196 124.968L143.723 138.611L125.527 130.021L141.196 124.968ZM117.44 157.305C119.756 148.558 120.857 143.534 121.989 134.063L141.701 143.158L117.44 157.305ZM82.565 172.463C90.2619 160.327 93.6781 153.322 96.7172 140.126C101.076 149.401 103.984 154.126 110.869 160.842L82.565 172.463ZM77.0052 171.958C74.0553 165.274 73.6491 160.713 76.4997 150.232L90.6519 143.158C88.2046 153.984 84.8543 160.342 77.0052 171.958ZM46.1736 178.526C52.0361 168.673 57.6699 163.818 69.9291 155.789C68.9884 163.746 69.6581 167.904 72.9617 174.989C63.3975 177.231 57.4429 177.922 46.1736 178.526ZM44.6572 183.579C43.575 190.893 46.0235 194.716 53.2496 201.263C60.5294 193.136 64.4348 188.592 70.9398 180.547C60.4008 182.389 54.6317 183.066 44.6572 183.579ZM77.0052 180.547C70.1723 189.424 66.4252 193.859 59.8204 201.263C72.8291 199.228 80.3271 197.31 94.19 192.168C87.0771 188.655 83.2972 186.141 77.0052 180.547ZM61.3367 205.811C74.2439 203.913 81.1636 202.004 93.1791 197.726C88.4614 203.561 85.5184 206.877 79.5323 212.884C72.2887 210.87 68.2885 209.394 61.3367 205.811ZM126.538 218.947C113.053 218.454 105.814 217.85 93.6845 215.916C110.747 212.567 119.86 210.107 134.625 203.789C132.09 209.869 130.293 213.16 126.538 218.947ZM87.6193 211.874C92.7123 206.266 95.6456 202.765 101.266 194.695C111.425 198.492 117.171 200.03 127.549 201.263C112.855 206.73 104.065 208.98 87.6193 211.874ZM137.152 197.221C124.467 196.748 117.861 195.653 107.331 191.663C121.724 185.4 129.61 181.482 143.217 173.474C142.515 181.447 141.266 186.571 137.152 197.221ZM105.815 187.116C109.819 178.696 111.98 173.757 115.418 163.874C123.718 168.036 128.604 169.568 137.657 170.947C125.359 177.78 118.396 181.354 105.815 187.116ZM109.353 166.905C105.32 176.502 103.001 181.336 98.7389 188.632C91.4386 185.249 87.6235 183.003 81.5541 178.021C92.5095 174.053 98.5852 171.597 109.353 166.905ZM144.734 166.905C133.313 165.773 127.846 164.591 120.978 160.842L144.734 146.695C145.39 155.508 145.327 159.844 144.734 166.905ZM96.7172 63.3263L109.858 54.7368L85.5976 49.6842L96.7172 63.3263Z" fill="#C5C5C5"/>
<path fill-rule="evenodd" clip-rule="evenodd" d="M49.7116 165.895C110.93 132.099 147.535 121.05 216 112.337C197.979 87.1627 180.272 77.3961 133.109 68.8842C86.0958 62.346 71.1362 58.5917 68.9182 51.7053C65.865 58.4636 70.2457 62.5881 76.0105 68.0157C83.6063 75.1672 93.605 84.581 92.1682 105.263C89.0935 126.779 76.9586 138.654 63.0976 152.217C58.7305 156.491 54.1921 160.932 49.7116 165.895ZM92.1682 81.0105C88.3139 74.1414 85.6234 70.6109 80.0378 64.8421C89.9227 66.8391 95.5564 67.9561 105.815 69.8947C100.216 73.8685 97.2361 76.3122 92.1682 81.0105ZM94.6954 87.5789C96.1709 92.3371 96.6254 96.1375 96.7172 105.263L112.386 92.1263C105.377 89.7754 101.509 88.8103 94.6954 87.5789ZM164.446 116.379C179.694 112.807 189.27 111.172 207.913 108.8C198.345 98.6166 193.097 94.5332 183.876 89.2763C176.992 100.664 172.79 106.66 164.446 116.379ZM106.826 113.853C105.876 113.36 105.011 112.853 104.15 112.349C102.651 111.471 101.161 110.598 99.2443 109.811C102.679 106.96 105.23 104.826 107.446 102.971C109.93 100.893 111.993 99.1669 114.407 97.1789C112.167 103.467 110.506 107.117 106.826 113.853ZM116.935 125.979C115.276 121.976 113.997 120.043 111.375 116.884C119.5 112.11 123.916 109.634 131.087 106.274L116.935 125.979ZM121.989 127.495C128.806 118.933 132.398 113.806 138.163 103.747C146.185 109.321 149.867 112.529 155.348 118.4C146.872 119.968 139.951 121.789 121.989 127.495ZM119.967 94.1474C118.847 100.119 117.853 103.644 114.913 109.305C121.208 105.692 124.872 103.729 131.592 100.211L119.967 94.1474ZM97.2226 83.0316C102.762 78.0533 106.154 75.4778 112.891 71.4105C115.632 77.1809 116.046 81.0933 115.924 88.5895C109.184 85.9285 105.059 84.7334 97.2226 83.0316ZM120.978 86.5684C120.947 80.1152 120.527 76.7987 118.451 71.9158C126.645 72.5736 131.445 73.3123 140.185 74.9474C132.582 78.7201 128.369 81.2221 120.978 86.5684ZM123 91.1158L136.141 97.1789C139.911 90.174 141.711 86.0922 144.228 78.4842C135.854 82.813 131.213 85.599 123 91.1158ZM149.788 76.9684C149.087 78.8111 148.544 80.66 147.984 82.5674C146.822 86.526 145.585 90.7361 142.712 95.6631C154.858 90.5097 161.917 88.1395 175.06 85.0526C165.551 81.1319 160.088 79.2062 149.788 76.9684ZM142.712 101.221C149.653 105.761 153.161 108.774 158.886 114.863C167.005 105.377 171.24 99.7595 178.092 89.0947C163.064 92.825 155.398 95.5435 142.712 101.221ZM87.1139 133.558L78.016 144.674L98.2335 125.474L87.1139 133.558ZM92.6737 138.611C98.9415 132.078 102.311 128.258 107.837 120.926C111.046 123.839 112.218 125.896 112.891 130.526C105.451 133.35 101.006 135.12 92.6737 138.611ZM96.2117 113.853C95.3504 118.019 94.6088 119.863 93.1791 122.947C96.7899 120.407 98.7911 119.068 102.277 116.884L96.2117 113.853Z" fill="#B71C1C"/>
</g>
<defs>
<clipPath id="clip0_134_47">
<rect width="256" height="256" fill="white"/>
</clipPath>
</defs>
</svg>
