<svg width="256" height="256" viewBox="0 0 256 256" fill="none" xmlns="http://www.w3.org/2000/svg">
<g clip-path="url(#clip0_134_45)">
<path d="M196 0H60C26.8629 0 0 26.8629 0 60V196C0 229.137 26.8629 256 60 256H196C229.137 256 256 229.137 256 196V60C256 26.8629 229.137 0 196 0Z" fill="#F4F2ED"/>
<path d="M91.4 185.557C58.4 185.557 32 158.948 32 125.686C32 92.424 58.4 65.8145 91.4 65.8145H161C194 65.8145 220.4 92.424 220.4 125.686C220.4 158.948 194 185.557 161 185.557H91.4ZM159.2 164.391C180.8 164.391 197.6 146.853 197.6 125.686C197.6 103.914 180.2 86.9811 159.2 86.9811H93.2C71.6 86.9811 54.8 104.519 54.8 125.686C54.8 146.853 72.2 164.391 93.2 164.391H159.2Z" fill="#C74634"/>
</g>
<defs>
<clipPath id="clip0_134_45">
<rect width="256" height="256" fill="white"/>
</clipPath>
</defs>
</svg>
