<svg width="256" height="256" viewBox="0 0 256 256" fill="none" xmlns="http://www.w3.org/2000/svg">
<g clip-path="url(#clip0_145_120)">
<path d="M196 0H60C26.8629 0 0 26.8629 0 60V196C0 229.137 26.8629 256 60 256H196C229.137 256 256 229.137 256 196V60C256 26.8629 229.137 0 196 0Z" fill="#F4F2ED"/>
<path fill-rule="evenodd" clip-rule="evenodd" d="M41.1429 202C79.5429 192.915 119.771 167.476 123.429 129.317C99.6571 167.476 61.2571 125.683 125.257 103.878C161.13 96.813 183.087 102.535 224 122.049L192.914 89.3415L224 53C179.925 66.9702 168.132 73.1899 163.657 82.0732C139.841 79.2468 126.662 80.169 103.314 83.8902V53C58.656 79.5374 39.3143 103.878 32 172.927C42.9714 169.293 61.2571 169.293 63.0857 176.561L52.1143 191.098C47.3074 186.402 44.9677 183.08 41.1429 176.561C41.4197 182.953 42.7492 187.022 46.6286 194.732C41.2229 188.691 38.914 184.872 35.6571 176.561C35.6433 185.825 37.0871 191.454 41.1429 202ZM64.9142 145.671C59.4285 147.488 48.457 158.39 55.7714 162.024C63.0858 165.659 66.7429 152.939 64.9142 145.671ZM74.0571 98.4268C81.3714 105.695 85.0286 109.329 86.8571 123.866C92.3429 114.78 86.8571 102.061 74.0571 98.4268ZM81.3714 96.6098C88.5437 102.84 90.5498 105.955 92.3429 118.415C97.7221 110.627 93.9229 99.7247 81.3714 96.6098ZM88.6857 94.7927C94.0649 99.9843 94.6552 100.763 96 111.146C100.034 104.657 98.0993 97.3885 88.6857 94.7927ZM94.1714 92.9756C97.7576 96.0906 100.589 99.4652 101.486 105.695C104.175 101.801 100.447 94.5331 94.1714 92.9756Z" fill="#F0981B"/>
</g>
<defs>
<clipPath id="clip0_145_120">
<rect width="256" height="256" fill="white"/>
</clipPath>
</defs>
</svg>
