<svg width="256" height="256" viewBox="0 0 256 256" fill="none" xmlns="http://www.w3.org/2000/svg">
<g clip-path="url(#clip0_147_96)">
<path d="M196 0H60C26.8629 0 0 26.8629 0 60V196C0 229.137 26.8629 256 60 256H196C229.137 256 256 229.137 256 196V60C256 26.8629 229.137 0 196 0Z" fill="#F4F2ED"/>
<path fill-rule="evenodd" clip-rule="evenodd" d="M51.8964 164H32V92.0283C36.5373 92.0282 41.7872 92.0459 45.4301 92.0284C73.7356 91.8923 76.7362 91.8398 84.228 102.024L71.7927 139.01H51.8964V164ZM51.8964 125.015V106.023C52.6371 106.023 53.3886 106.023 54.3834 106.023C60.8497 106.023 69.8031 105.388 69.8031 115.019C69.8031 126.015 57.8653 125.015 51.8964 125.015Z" fill="#3D3D3D"/>
<path d="M111.585 164H92.6839L82.2383 146.007L91.6891 117.518L102.135 138.01L117.554 92.0283H132.477L146.404 138.01L166.301 92.0283H185.699L157.347 164H137.451L124.518 122.516L111.585 164Z" fill="#5A0FC8"/>
<path d="M173.762 151.005L179.233 137.011H195.15L187.192 116.019L197.14 92.0283L224 164H203.606L199.13 151.005H173.762Z" fill="#3D3D3D"/>
</g>
<defs>
<clipPath id="clip0_147_96">
<rect width="256" height="256" fill="white"/>
</clipPath>
</defs>
</svg>
