<svg width="256" height="256" viewBox="0 0 256 256" fill="none" xmlns="http://www.w3.org/2000/svg">
<g clip-path="url(#clip0_131_62)">
<path d="M196 0H60C26.8629 0 0 26.8629 0 60V196C0 229.137 26.8629 256 60 256H196C229.137 256 256 229.137 256 196V60C256 26.8629 229.137 0 196 0Z" fill="#F4F2ED"/>
<path d="M101.034 53.3061L57.8734 28L31 43.102V61.4694L89.6329 205.551L127.093 228V173.714L109.584 162.286L74.5675 82.6939V68.67L101.034 53.3061Z" fill="#1E74F4"/>
<path d="M153.966 53.3061V68.67L127.093 132.082V152.898L145.416 162.286L181.247 82.6939V68.67L153.966 53.3061Z" fill="#1E74F4"/>
<path d="M224 43.102L197.941 28L153.966 53.3061L181.247 68.67L224 43.102Z" fill="#1E74F4"/>
<path d="M127.093 173.714L145.416 162.286L127.093 152.898L109.584 162.286L127.093 173.714Z" fill="#1E74F4"/>
<path d="M127.093 228L165.774 205.551L224 61.4694V43.102L181.247 68.67V82.6939L145.416 162.286L127.093 173.714V228Z" fill="#0E5CCD"/>
<path d="M127.093 132.082L101.034 68.67V53.3061L74.5675 68.67V82.6939L109.584 162.286L127.093 152.898V132.082Z" fill="#115DCC"/>
</g>
<defs>
<clipPath id="clip0_131_62">
<rect width="256" height="256" fill="white"/>
</clipPath>
</defs>
</svg>
