<svg width="256" height="256" viewBox="0 0 256 256" fill="none" xmlns="http://www.w3.org/2000/svg">
<g clip-path="url(#clip0_134_19)">
<path d="M196 0H60C26.8629 0 0 26.8629 0 60V196C0 229.137 26.8629 256 60 256H196C229.137 256 256 229.137 256 196V60C256 26.8629 229.137 0 196 0Z" fill="#F4F2ED"/>
<path d="M220.62 154.102L180.288 162.754L184.386 203.034L146.616 186.758L125.808 221.733L105.004 186.758L67.2301 203.034L71.3325 162.75L31 154.102L58.4688 123.864L31 93.6306L71.3325 84.9783L67.2301 44.694L105.004 60.9746L125.808 26L146.616 60.9746L184.386 44.6986L180.288 85.0279L220.62 93.6306L193.151 123.864L220.62 154.102Z" fill="#FF8B79"/>
<path d="M126.239 87.0896L105.431 60.9703L67.6609 44.6987L90.1611 74.4721L126.239 87.0896Z" fill="#FD694F"/>
<path d="M71.7632 84.9792L31.4307 93.6316L58.8995 123.865L91.1844 112.073L71.7632 84.9792Z" fill="#FF3413"/>
<path d="M90.1566 74.4677L67.6609 44.6943L71.7588 84.9786L91.1845 112.072L90.1566 74.4677Z" fill="#DC1D23"/>
<path d="M147.051 60.9746L126.243 26L105.435 60.9746L126.243 87.0895L147.051 60.9746Z" fill="#FF9281"/>
<path d="M193.583 123.865L221.051 93.6316L180.719 84.9792L161.293 112.073L193.583 123.865Z" fill="#FF8B79"/>
<path d="M161.298 112.072L180.719 84.9786L184.871 44.6943L162.321 74.4677L161.293 112.072H161.298Z" fill="#FD694F"/>
<path d="M162.321 74.4677L184.87 44.6943L147.051 60.9749L126.243 87.0898L162.321 74.4677Z" fill="#EF5240"/>
<path d="M184.664 141.891L221.051 154.102L193.583 123.864L161.293 112.072L184.664 141.891Z" fill="#FF482C"/>
<path d="M91.1888 112.072L58.8995 123.864L31.4307 154.102L67.8179 141.895L91.1888 112.072Z" fill="#EC2101"/>
<path d="M126.243 183.564V221.728L147.051 186.758L147.922 152.505L126.243 183.564Z" fill="#D21C22"/>
<path d="M184.669 141.89L147.922 152.505L180.723 162.754L221.056 154.102L184.669 141.89Z" fill="#C90901"/>
<path d="M147.047 186.758L184.821 203.034L180.719 162.754L147.922 152.505L147.047 186.758Z" fill="#EC2101"/>
<path d="M67.8179 141.89L31.4307 154.106L71.7632 162.709L104.564 152.509L67.8179 141.899V141.89Z" fill="#B6171E"/>
<path d="M104.564 152.505L105.435 186.758L126.243 221.732V183.564L104.564 152.505Z" fill="#B4151B"/>
<path d="M71.7588 162.7L67.6609 203.029L105.431 186.758L104.56 152.505L71.7588 162.7Z" fill="#D21C22"/>
<path d="M161.297 112.073L162.321 74.468L126.243 87.0901V123.662L161.297 112.073Z" fill="#E63320"/>
<path d="M126.243 87.0901L90.1565 74.468L91.1843 112.073L126.239 123.662L126.243 87.0901Z" fill="#FF4527"/>
<path d="M104.564 152.505L126.243 183.564L147.922 152.505L126.243 123.661L104.564 152.505Z" fill="#FF9281"/>
<path d="M126.243 123.661L147.922 152.505L184.668 141.895L161.297 112.072L126.243 123.661Z" fill="#FD684D"/>
<path d="M91.1886 112.072L67.8176 141.891L104.564 152.505L126.243 123.661L91.1886 112.072Z" fill="#FD745C"/>
</g>
<defs>
<clipPath id="clip0_134_19">
<rect width="256" height="256" fill="white"/>
</clipPath>
</defs>
</svg>
