<svg width="256" height="256" viewBox="0 0 256 256" fill="none" xmlns="http://www.w3.org/2000/svg">
<g clip-path="url(#clip0_145_101)">
<path d="M196 0H60C26.8629 0 0 26.8629 0 60V196C0 229.137 26.8629 256 60 256H196C229.137 256 256 229.137 256 196V60C256 26.8629 229.137 0 196 0Z" fill="#F4F2ED"/>
<path d="M177.952 50H204.416L146.6 116.08L214.616 206H161.36L119.648 151.464L71.92 206H45.44L107.28 135.32L42.032 50H96.64L134.344 99.848L177.952 50ZM168.664 190.16H183.328L88.672 65.008H72.936L168.664 190.16Z" fill="black"/>
</g>
<defs>
<clipPath id="clip0_145_101">
<rect width="256" height="256" fill="white"/>
</clipPath>
</defs>
</svg>
